<svg width="500" height="500" viewBox="0 0 500 500" fill="none" xmlns="http://www.w3.org/2000/svg">
<path fill-rule="evenodd" clip-rule="evenodd" d="M209.142 131.298L196.849 62.0603L136.122 244.032L28.6411 300.031L100.085 322.62H100.19L122.989 329.87L136.963 392.488L138.959 401.419L141.27 411.82V411.925L151.987 459.835L182.14 397.321L182.245 397.111L188.759 383.663L194.328 371.896L214.605 329.87L307.167 249.916L226.793 230.584L217.862 180.783L213.975 158.51L209.247 132.243L209.142 131.298Z" fill="#2967EB"/>
<path fill-rule="evenodd" clip-rule="evenodd" d="M246.126 60.1709L345.622 225.227L347.618 228.379L351.19 229.535L460.037 263.261L355.918 321.361L352.241 323.357L351.19 327.35L319.041 445.127L234.779 363.387L230.366 359.079L224.588 361.181L194.329 371.897L188.761 383.665L223.747 371.057L226.794 370.006L324.189 464.354L360.751 329.977L483.467 260.844L353.712 220.604L242.554 36.1111L213.976 158.511L217.863 180.785L246.126 60.1709Z" fill="#2967EB"/>
<path fill-rule="evenodd" clip-rule="evenodd" d="M120.365 329.032L110.91 326.09L81.3863 362.022L16.6666 445.128L138.962 401.421L136.965 392.491L43.5631 425.796L94.6245 360.236L120.365 329.032Z" fill="#2967EB"/>
</svg>
