<svg width="180" height="180" viewBox="0 0 180 180" fill="none" xmlns="http://www.w3.org/2000/svg">
<path fill-rule="evenodd" clip-rule="evenodd" d="M75.2911 47.2672L70.8658 22.3417L49.004 87.8516L10.3108 108.011L36.0306 116.143H36.0684L44.2761 118.753L49.3065 141.296L50.0252 144.511L50.8573 148.255V148.293L54.7153 165.54L65.5705 143.036L65.6083 142.96L67.9534 138.119L69.9581 133.882L77.2579 118.753L110.58 89.9697L81.6454 83.0102L78.4304 65.082L77.031 57.0634L75.3289 47.6076L75.2911 47.2672Z" fill="#2967EB"/>
<path fill-rule="evenodd" clip-rule="evenodd" d="M88.6053 21.6615L124.424 81.0818L125.143 82.2165L126.429 82.6326L165.613 94.7738L128.131 115.69L126.807 116.409L126.429 117.846L114.855 160.246L84.5204 130.819L82.9319 129.269L80.8516 130.025L69.9585 133.883L67.9539 138.119L80.549 133.58L81.6459 133.202L116.708 167.167L129.87 118.792L174.048 93.9039L127.336 79.4176L87.3194 13L77.0314 57.0641L78.4309 65.0826L88.6053 21.6615Z" fill="#2967EB"/>
<path fill-rule="evenodd" clip-rule="evenodd" d="M43.3315 118.451L39.9274 117.392L29.2991 130.328L6 160.246L50.0262 144.512L49.3076 141.297L15.6827 153.287L34.0648 129.685L43.3315 118.451Z" fill="#2967EB"/>
</svg>
