<svg width="60" height="60" viewBox="0 0 60 60" fill="none" xmlns="http://www.w3.org/2000/svg">
<ellipse cx="30" cy="28.6667" rx="21.3333" ry="21.3333" fill="#FFED49"/>
<path d="M14.9201 47.3663C14.9201 46.9632 14.5931 46.6362 14.19 46.6362C13.7869 46.6362 13.4599 46.9632 13.4599 47.3663C13.4599 47.7694 13.7869 48.0964 14.19 48.0964C14.5931 48.0964 14.9201 47.7694 14.9201 47.3663Z" fill="#191A1C"/>
<path d="M18.082 41.8896C18.082 41.4865 17.755 41.1595 17.3519 41.1595C16.9488 41.1595 16.6218 41.4865 16.6218 41.8896C16.6218 42.2927 16.9488 42.6197 17.3519 42.6197C17.755 42.6197 18.082 42.2927 18.082 41.8896Z" fill="#191A1C"/>
<path d="M24.4051 41.8896C24.4051 41.4865 24.0781 41.1595 23.675 41.1595C23.2719 41.1595 22.9449 41.4865 22.9449 41.8896C22.9449 42.2927 23.2719 42.6197 23.675 42.6197C24.0781 42.6197 24.4051 42.2927 24.4051 41.8896Z" fill="#191A1C"/>
<path d="M27.567 47.3663C27.567 46.9632 27.24 46.6362 26.8369 46.6362C26.4338 46.6362 26.1068 46.9632 26.1068 47.3663C26.1068 47.7694 26.4338 48.0964 26.8369 48.0964C27.24 48.0964 27.567 47.7694 27.567 47.3663Z" fill="#191A1C"/>
<path d="M24.4051 52.8423C24.4051 52.4392 24.0781 52.1122 23.675 52.1122C23.2719 52.1122 22.9449 52.4392 22.9449 52.8423C22.9449 53.2454 23.2719 53.5724 23.675 53.5724C24.0781 53.5724 24.4051 53.2454 24.4051 52.8423Z" fill="#191A1C"/>
<path d="M18.082 52.8423C18.082 52.4392 17.755 52.1122 17.3519 52.1122C16.9488 52.1122 16.6218 52.4392 16.6218 52.8423C16.6218 53.2454 16.9488 53.5724 17.3519 53.5724C17.755 53.5724 18.082 53.2454 18.082 52.8423Z" fill="#191A1C"/>
<path d="M21.6084 47.3664C21.6084 46.7615 21.118 46.2712 20.5133 46.2712C19.9084 46.2712 19.4182 46.7616 19.4182 47.3664C19.4182 47.9712 19.9085 48.4615 20.5133 48.4615C21.1181 48.4615 21.6084 47.9711 21.6084 47.3664Z" fill="#191A1C"/>
<path d="M24.5877 45.541C24.5877 45.0368 24.1792 44.6283 23.675 44.6283C23.1709 44.6283 22.7624 45.0368 22.7624 45.541C22.7624 46.0451 23.1709 46.4536 23.675 46.4536C24.1791 46.4536 24.5877 46.0451 24.5877 45.541Z" fill="#191A1C"/>
<path d="M21.4258 43.7158C21.4258 43.2116 21.0173 42.8031 20.5132 42.8031C20.009 42.8031 19.6005 43.2116 19.6005 43.7158C19.6005 44.2199 20.009 44.6284 20.5132 44.6284C21.0173 44.6284 21.4258 44.2199 21.4258 43.7158Z" fill="#191A1C"/>
<path d="M18.2646 45.541C18.2646 45.0368 17.8561 44.6283 17.352 44.6283C16.8478 44.6283 16.4393 45.0368 16.4393 45.541C16.4393 46.0451 16.8478 46.4536 17.352 46.4536C17.8561 46.4536 18.2646 46.0451 18.2646 45.541Z" fill="#191A1C"/>
<path d="M24.5877 49.1916C24.5877 48.6875 24.1792 48.2789 23.675 48.2789C23.1709 48.2789 22.7624 48.6874 22.7624 49.1916C22.7624 49.6957 23.1709 50.1042 23.675 50.1042C24.1791 50.1042 24.5877 49.6957 24.5877 49.1916Z" fill="#191A1C"/>
<path d="M21.4258 51.0169C21.4258 50.5128 21.0173 50.1042 20.5132 50.1042C20.009 50.1042 19.6005 50.5128 19.6005 51.0169C19.6005 51.5211 20.009 51.9296 20.5132 51.9296C21.0173 51.9296 21.4258 51.5211 21.4258 51.0169Z" fill="#191A1C"/>
<path d="M18.2646 49.1916C18.2646 48.6875 17.8561 48.2789 17.352 48.2789C16.8478 48.2789 16.4393 48.6874 16.4393 49.1916C16.4393 49.6957 16.8478 50.1042 17.352 50.1042C17.8561 50.1042 18.2646 49.6957 18.2646 49.1916Z" fill="#191A1C"/>
<path d="M14.7376 51.0169C14.7376 50.7145 14.4924 50.4694 14.19 50.4694C13.8876 50.4694 13.6424 50.7145 13.6424 51.0169C13.6424 51.3193 13.8876 51.5645 14.19 51.5645C14.4924 51.5645 14.7376 51.3193 14.7376 51.0169Z" fill="#191A1C"/>
<path d="M21.0613 54.6676C21.0613 54.3652 20.8162 54.12 20.5138 54.12C20.2113 54.12 19.9662 54.3652 19.9662 54.6676C19.9662 54.97 20.2113 55.2151 20.5138 55.2151C20.8162 55.2151 21.0613 54.97 21.0613 54.6676Z" fill="#191A1C"/>
<path d="M14.7376 43.7157C14.7376 43.4133 14.4924 43.1681 14.19 43.1681C13.8876 43.1681 13.6424 43.4133 13.6424 43.7157C13.6424 44.0181 13.8876 44.2632 14.19 44.2632C14.4924 44.2632 14.7376 44.0181 14.7376 43.7157Z" fill="#191A1C"/>
<path d="M21.0613 40.0643C21.0613 39.7619 20.8162 39.5167 20.5138 39.5167C20.2113 39.5167 19.9662 39.7619 19.9662 40.0643C19.9662 40.3667 20.2113 40.6119 20.5138 40.6119C20.8162 40.6119 21.0613 40.3667 21.0613 40.0643Z" fill="#191A1C"/>
<path d="M27.3842 43.7157C27.3842 43.4133 27.1391 43.1681 26.8367 43.1681C26.5343 43.1681 26.2891 43.4133 26.2891 43.7157C26.2891 44.0181 26.5343 44.2632 26.8367 44.2632C27.1391 44.2632 27.3842 44.0181 27.3842 43.7157Z" fill="#191A1C"/>
<path d="M27.3842 51.0169C27.3842 50.7145 27.1391 50.4694 26.8367 50.4694C26.5343 50.4694 26.2891 50.7145 26.2891 51.0169C26.2891 51.3193 26.5343 51.5645 26.8367 51.5645C27.1391 51.5645 27.3842 51.3193 27.3842 51.0169Z" fill="#191A1C"/>
<path d="M14.555 54.6675C14.555 54.4658 14.3917 54.3025 14.19 54.3025C13.9883 54.3025 13.8249 54.4658 13.8249 54.6675C13.8249 54.8692 13.9883 55.0326 14.19 55.0326C14.3917 55.0326 14.555 54.8692 14.555 54.6675Z" fill="#191A1C"/>
<path d="M17.7169 56.4929C17.7169 56.2912 17.5536 56.1278 17.3519 56.1278C17.1502 56.1278 16.9868 56.2912 16.9868 56.4929C16.9868 56.6946 17.1502 56.8579 17.3519 56.8579C17.5536 56.8579 17.7169 56.6946 17.7169 56.4929Z" fill="#191A1C"/>
<path d="M11.3938 45.5409C11.3938 45.3392 11.2305 45.1759 11.0288 45.1759C10.8271 45.1759 10.6637 45.3395 10.6637 45.5409C10.6637 45.7426 10.8271 45.906 11.0288 45.906C11.2305 45.906 11.3938 45.7426 11.3938 45.5409Z" fill="#191A1C"/>
<path d="M11.3938 49.1916C11.3938 48.9899 11.2305 48.8265 11.0288 48.8265C10.8271 48.8265 10.6637 48.9902 10.6637 49.1916C10.6637 49.3933 10.8271 49.5566 11.0288 49.5566C11.2305 49.5566 11.3938 49.3933 11.3938 49.1916Z" fill="#191A1C"/>
<path d="M27.2017 54.6675C27.2017 54.4658 27.0384 54.3025 26.8367 54.3025C26.635 54.3025 26.4716 54.4658 26.4716 54.6675C26.4716 54.8692 26.635 55.0326 26.8367 55.0326C27.0384 55.0326 27.2017 54.8692 27.2017 54.6675Z" fill="#191A1C"/>
<path d="M24.0398 56.4929C24.0398 56.2912 23.8765 56.1278 23.6748 56.1278C23.4731 56.1278 23.3097 56.2912 23.3097 56.4929C23.3097 56.6946 23.4731 56.8579 23.6748 56.8579C23.8765 56.8579 24.0398 56.6946 24.0398 56.4929Z" fill="#191A1C"/>
<path d="M17.7169 38.2398C17.7169 38.0381 17.5536 37.8748 17.3519 37.8748C17.1502 37.8748 16.9868 38.0381 16.9868 38.2398C16.9868 38.4415 17.1502 38.6049 17.3519 38.6049C17.5536 38.6049 17.7169 38.4415 17.7169 38.2398Z" fill="#191A1C"/>
<path d="M14.555 40.0643C14.555 39.8626 14.3917 39.6992 14.19 39.6992C13.9883 39.6992 13.8249 39.8626 13.8249 40.0643C13.8249 40.266 13.9883 40.4293 14.19 40.4293C14.3917 40.4293 14.555 40.266 14.555 40.0643Z" fill="#191A1C"/>
<path d="M27.2017 40.0643C27.2017 39.8626 27.0384 39.6992 26.8367 39.6992C26.635 39.6992 26.4716 39.8626 26.4716 40.0643C26.4716 40.266 26.635 40.4293 26.8367 40.4293C27.0384 40.4293 27.2017 40.266 27.2017 40.0643Z" fill="#191A1C"/>
<path d="M24.0398 38.2398C24.0398 38.0381 23.8765 37.8748 23.6748 37.8748C23.4731 37.8748 23.3097 38.0381 23.3097 38.2398C23.3097 38.4415 23.4731 38.6049 23.6748 38.6049C23.8765 38.6049 24.0398 38.4415 24.0398 38.2398Z" fill="#191A1C"/>
<path d="M30.3636 49.1916C30.3636 48.9899 30.2003 48.8265 29.9986 48.8265C29.7969 48.8265 29.6335 48.9899 29.6335 49.1916C29.6335 49.3933 29.7969 49.5566 29.9986 49.5566C30.2003 49.5566 30.3636 49.3933 30.3636 49.1916Z" fill="#191A1C"/>
<path d="M30.3636 45.5409C30.3636 45.3392 30.2003 45.1759 29.9986 45.1759C29.7969 45.1759 29.6335 45.3392 29.6335 45.5409C29.6335 45.7426 29.7969 45.906 29.9986 45.906C30.2003 45.906 30.3636 45.7426 30.3636 45.5409Z" fill="#191A1C"/>
<path d="M33.8899 47.3663C33.8899 46.9632 33.5629 46.6362 33.1598 46.6362C32.7567 46.6362 32.4297 46.9632 32.4297 47.3663C32.4297 47.7694 32.7567 48.0964 33.1598 48.0964C33.5629 48.0964 33.8899 47.7694 33.8899 47.3663Z" fill="#191A1C"/>
<path d="M37.0518 41.8896C37.0518 41.4865 36.7248 41.1595 36.3217 41.1595C35.9186 41.1595 35.5916 41.4865 35.5916 41.8896C35.5916 42.2927 35.9186 42.6197 36.3217 42.6197C36.7248 42.6197 37.0518 42.2927 37.0518 41.8896Z" fill="#191A1C"/>
<path d="M43.3747 41.8896C43.3747 41.4865 43.0477 41.1595 42.6446 41.1595C42.2415 41.1595 41.9145 41.4865 41.9145 41.8896C41.9145 42.2927 42.2415 42.6197 42.6446 42.6197C43.0477 42.6197 43.3747 42.2927 43.3747 41.8896Z" fill="#191A1C"/>
<path d="M46.5367 47.3663C46.5367 46.9632 46.2097 46.6362 45.8066 46.6362C45.4035 46.6362 45.0765 46.9632 45.0765 47.3663C45.0765 47.7694 45.4035 48.0964 45.8066 48.0964C46.2097 48.0964 46.5367 47.7694 46.5367 47.3663Z" fill="#191A1C"/>
<path d="M43.3747 52.8423C43.3747 52.4392 43.0477 52.1122 42.6446 52.1122C42.2415 52.1122 41.9145 52.4392 41.9145 52.8423C41.9145 53.2454 42.2415 53.5724 42.6446 53.5724C43.0477 53.5724 43.3747 53.2454 43.3747 52.8423Z" fill="#191A1C"/>
<path d="M37.0518 52.8423C37.0518 52.4392 36.7248 52.1122 36.3217 52.1122C35.9186 52.1122 35.5916 52.4392 35.5916 52.8423C35.5916 53.2454 35.9186 53.5724 36.3217 53.5724C36.7248 53.5724 37.0518 53.2454 37.0518 52.8423Z" fill="#191A1C"/>
<path d="M40.5782 47.3664C40.5782 46.7615 40.0878 46.2712 39.4831 46.2712C38.8782 46.2712 38.3879 46.7616 38.3879 47.3664C38.3879 47.9712 38.8783 48.4615 39.4831 48.4615C40.0879 48.4615 40.5782 47.9711 40.5782 47.3664Z" fill="#191A1C"/>
<path d="M43.5573 45.541C43.5573 45.0368 43.1488 44.6283 42.6446 44.6283C42.1405 44.6283 41.732 45.0368 41.732 45.541C41.732 46.0451 42.1405 46.4536 42.6446 46.4536C43.1488 46.4536 43.5573 46.0451 43.5573 45.541Z" fill="#191A1C"/>
<path d="M40.3963 43.7158C40.3963 43.2116 39.9878 42.8031 39.4836 42.8031C38.9795 42.8031 38.571 43.2116 38.571 43.7158C38.571 44.2199 38.9795 44.6284 39.4836 44.6284C39.9877 44.6284 40.3963 44.2199 40.3963 43.7158Z" fill="#191A1C"/>
<path d="M37.2344 45.541C37.2344 45.0368 36.8259 44.6283 36.3217 44.6283C35.8176 44.6283 35.4091 45.0368 35.4091 45.541C35.4091 46.0451 35.8176 46.4536 36.3217 46.4536C36.8258 46.4536 37.2344 46.0451 37.2344 45.541Z" fill="#191A1C"/>
<path d="M43.5573 49.1916C43.5573 48.6875 43.1488 48.2789 42.6446 48.2789C42.1405 48.2789 41.732 48.6874 41.732 49.1916C41.732 49.6957 42.1405 50.1042 42.6446 50.1042C43.1488 50.1042 43.5573 49.6957 43.5573 49.1916Z" fill="#191A1C"/>
<path d="M40.3963 51.0169C40.3963 50.5128 39.9878 50.1042 39.4836 50.1042C38.9795 50.1042 38.571 50.5128 38.571 51.0169C38.571 51.5211 38.9795 51.9296 39.4836 51.9296C39.9877 51.9296 40.3963 51.5211 40.3963 51.0169Z" fill="#191A1C"/>
<path d="M37.2344 49.1916C37.2344 48.6875 36.8259 48.2789 36.3217 48.2789C35.8176 48.2789 35.4091 48.6874 35.4091 49.1916C35.4091 49.6957 35.8176 50.1042 36.3217 50.1042C36.8258 50.1042 37.2344 49.6957 37.2344 49.1916Z" fill="#191A1C"/>
<path d="M33.7073 51.0169C33.7073 50.7145 33.4622 50.4694 33.1598 50.4694C32.8573 50.4694 32.6122 50.7145 32.6122 51.0169C32.6122 51.3193 32.8573 51.5645 33.1598 51.5645C33.4622 51.5645 33.7073 51.3193 33.7073 51.0169Z" fill="#191A1C"/>
<path d="M40.0311 54.6676C40.0311 54.3652 39.786 54.12 39.4835 54.12C39.1811 54.12 38.936 54.3652 38.936 54.6676C38.936 54.97 39.1811 55.2151 39.4835 55.2151C39.786 55.2151 40.0311 54.97 40.0311 54.6676Z" fill="#191A1C"/>
<path d="M33.7073 43.7157C33.7073 43.4133 33.4622 43.1681 33.1598 43.1681C32.8573 43.1681 32.6122 43.4133 32.6122 43.7157C32.6122 44.0181 32.8573 44.2632 33.1598 44.2632C33.4622 44.2632 33.7073 44.0181 33.7073 43.7157Z" fill="#191A1C"/>
<path d="M40.0311 40.0643C40.0311 39.7619 39.786 39.5167 39.4835 39.5167C39.1811 39.5167 38.936 39.7619 38.936 40.0643C38.936 40.3667 39.1811 40.6119 39.4835 40.6119C39.786 40.6119 40.0311 40.3667 40.0311 40.0643Z" fill="#191A1C"/>
<path d="M46.354 43.7157C46.354 43.4133 46.1089 43.1681 45.8065 43.1681C45.504 43.1681 45.2589 43.4133 45.2589 43.7157C45.2589 44.0181 45.504 44.2632 45.8065 44.2632C46.1089 44.2632 46.354 44.0181 46.354 43.7157Z" fill="#191A1C"/>
<path d="M46.354 51.0169C46.354 50.7145 46.1089 50.4694 45.8065 50.4694C45.504 50.4694 45.2589 50.7145 45.2589 51.0169C45.2589 51.3193 45.504 51.5645 45.8065 51.5645C46.1089 51.5645 46.354 51.3193 46.354 51.0169Z" fill="#191A1C"/>
<path d="M33.5246 54.6675C33.5246 54.4658 33.3613 54.3025 33.1596 54.3025C32.9579 54.3025 32.7945 54.4658 32.7945 54.6675C32.7945 54.8692 32.9579 55.0326 33.1596 55.0326C33.3613 55.0326 33.5246 54.8692 33.5246 54.6675Z" fill="#191A1C"/>
<path d="M36.6865 56.4929C36.6865 56.2912 36.5232 56.1278 36.3215 56.1278C36.1198 56.1278 35.9564 56.2912 35.9564 56.4929C35.9564 56.6946 36.1198 56.8579 36.3215 56.8579C36.5232 56.8579 36.6865 56.6946 36.6865 56.4929Z" fill="#191A1C"/>
<path d="M46.1715 54.6675C46.1715 54.4658 46.0082 54.3025 45.8065 54.3025C45.6047 54.3025 45.4414 54.4658 45.4414 54.6675C45.4414 54.8692 45.6047 55.0326 45.8065 55.0326C46.0082 55.0326 46.1715 54.8692 46.1715 54.6675Z" fill="#191A1C"/>
<path d="M43.0103 56.4929C43.0103 56.2912 42.847 56.1278 42.6453 56.1278C42.4436 56.1278 42.2802 56.2912 42.2802 56.4929C42.2802 56.6946 42.4436 56.8579 42.6453 56.8579C42.847 56.8579 43.0103 56.6946 43.0103 56.4929Z" fill="#191A1C"/>
<path d="M36.6865 38.2398C36.6865 38.0381 36.5232 37.8748 36.3215 37.8748C36.1198 37.8748 35.9564 38.0381 35.9564 38.2398C35.9564 38.4415 36.1198 38.6049 36.3215 38.6049C36.5232 38.6049 36.6865 38.4415 36.6865 38.2398Z" fill="#191A1C"/>
<path d="M33.5246 40.0643C33.5246 39.8626 33.3613 39.6992 33.1596 39.6992C32.9579 39.6992 32.7945 39.8626 32.7945 40.0643C32.7945 40.266 32.9579 40.4293 33.1596 40.4293C33.3613 40.4293 33.5246 40.266 33.5246 40.0643Z" fill="#191A1C"/>
<path d="M46.1715 40.0643C46.1715 39.8626 46.0082 39.6992 45.8065 39.6992C45.6047 39.6992 45.4414 39.8626 45.4414 40.0643C45.4414 40.266 45.6047 40.4293 45.8065 40.4293C46.0082 40.4293 46.1715 40.266 46.1715 40.0643Z" fill="#191A1C"/>
<path d="M43.0103 38.2398C43.0103 38.0381 42.847 37.8748 42.6453 37.8748C42.4436 37.8748 42.2802 38.0381 42.2802 38.2398C42.2802 38.4415 42.4436 38.6049 42.6453 38.6049C42.847 38.6049 43.0103 38.4415 43.0103 38.2398Z" fill="#191A1C"/>
<path d="M49.3334 49.1916C49.3334 48.9899 49.17 48.8265 48.9683 48.8265C48.7666 48.8265 48.6033 48.9899 48.6033 49.1916C48.6033 49.3933 48.7666 49.5566 48.9683 49.5566C49.17 49.5566 49.3334 49.3933 49.3334 49.1916Z" fill="#191A1C"/>
<path d="M49.3334 45.5409C49.3334 45.3392 49.17 45.1759 48.9683 45.1759C48.7666 45.1759 48.6033 45.3392 48.6033 45.5409C48.6033 45.7426 48.7666 45.906 48.9683 45.906C49.17 45.906 49.3334 45.7426 49.3334 45.5409Z" fill="#191A1C"/>
<path d="M24.4051 30.9377C24.4051 30.5346 24.0781 30.2076 23.675 30.2076C23.2719 30.2076 22.9449 30.5346 22.9449 30.9377C22.9449 31.3408 23.2719 31.6678 23.675 31.6678C24.0781 31.6678 24.4051 31.3408 24.4051 30.9377Z" fill="#191A1C"/>
<path d="M27.567 25.4618C27.567 25.0587 27.24 24.7317 26.8369 24.7317C26.4338 24.7317 26.1068 25.0587 26.1068 25.4618C26.1068 25.8649 26.4338 26.1919 26.8369 26.1919C27.24 26.1919 27.567 25.8649 27.567 25.4618Z" fill="#191A1C"/>
<path d="M33.8899 25.4618C33.8899 25.0587 33.5629 24.7317 33.1598 24.7317C32.7567 24.7317 32.4297 25.0587 32.4297 25.4618C32.4297 25.8649 32.7567 26.1919 33.1598 26.1919C33.5629 26.1919 33.8899 25.8649 33.8899 25.4618Z" fill="#191A1C"/>
<path d="M37.0518 30.9377C37.0518 30.5346 36.7248 30.2076 36.3217 30.2076C35.9186 30.2076 35.5916 30.5346 35.5916 30.9377C35.5916 31.3408 35.9186 31.6678 36.3217 31.6678C36.7248 31.6678 37.0518 31.3408 37.0518 30.9377Z" fill="#191A1C"/>
<path d="M33.8899 36.4137C33.8899 36.0106 33.5629 35.6836 33.1598 35.6836C32.7567 35.6836 32.4297 36.0106 32.4297 36.4137C32.4297 36.8168 32.7567 37.1438 33.1598 37.1438C33.5629 37.1438 33.8899 36.8168 33.8899 36.4137Z" fill="#191A1C"/>
<path d="M27.567 36.4137C27.567 36.0106 27.24 35.6836 26.8369 35.6836C26.4338 35.6836 26.1068 36.0106 26.1068 36.4137C26.1068 36.8168 26.4338 37.1438 26.8369 37.1438C27.24 37.1438 27.567 36.8168 27.567 36.4137Z" fill="#191A1C"/>
<path d="M31.0932 30.9378C31.0932 30.3329 30.6029 29.8427 29.9981 29.8427C29.3933 29.8427 28.903 30.333 28.903 30.9378C28.903 31.5426 29.3933 32.0329 29.9981 32.0329C30.6029 32.0329 31.0932 31.5425 31.0932 30.9378Z" fill="#191A1C"/>
<path d="M34.0725 29.1124C34.0725 28.6082 33.664 28.1997 33.1598 28.1997C32.6557 28.1997 32.2472 28.6082 32.2472 29.1124C32.2472 29.6165 32.6557 30.025 33.1598 30.025C33.664 30.025 34.0725 29.6165 34.0725 29.1124Z" fill="#191A1C"/>
<path d="M30.9106 27.2872C30.9106 26.7831 30.5021 26.3745 29.9979 26.3745C29.4938 26.3745 29.0853 26.783 29.0853 27.2872C29.0853 27.7913 29.4938 28.1998 29.9979 28.1998C30.5021 28.1998 30.9106 27.7913 30.9106 27.2872Z" fill="#191A1C"/>
<path d="M27.7496 29.1124C27.7496 28.6082 27.3411 28.1997 26.8369 28.1997C26.3328 28.1997 25.9243 28.6082 25.9243 29.1124C25.9243 29.6165 26.3328 30.025 26.8369 30.025C27.341 30.025 27.7496 29.6165 27.7496 29.1124Z" fill="#191A1C"/>
<path d="M34.0725 32.763C34.0725 32.2589 33.664 31.8503 33.1598 31.8503C32.6557 31.8503 32.2472 32.2588 32.2472 32.763C32.2472 33.2671 32.6557 33.6757 33.1598 33.6757C33.664 33.6757 34.0725 33.2671 34.0725 32.763Z" fill="#191A1C"/>
<path d="M30.9106 34.5883C30.9106 34.0842 30.5021 33.6757 29.9979 33.6757C29.4938 33.6757 29.0853 34.0842 29.0853 34.5883C29.0853 35.0924 29.4938 35.501 29.9979 35.501C30.5021 35.501 30.9106 35.0925 30.9106 34.5883Z" fill="#191A1C"/>
<path d="M27.7496 32.763C27.7496 32.2589 27.3411 31.8503 26.8369 31.8503C26.3328 31.8503 25.9243 32.2588 25.9243 32.763C25.9243 33.2671 26.3328 33.6757 26.8369 33.6757C27.341 33.6757 27.7496 33.2671 27.7496 32.763Z" fill="#191A1C"/>
<path d="M24.2224 34.5883C24.2224 34.2859 23.9772 34.0408 23.6748 34.0408C23.3724 34.0408 23.1272 34.2859 23.1272 34.5883C23.1272 34.8908 23.3724 35.1359 23.6748 35.1359C23.9772 35.1359 24.2224 34.8908 24.2224 34.5883Z" fill="#191A1C"/>
<path d="M30.5461 38.2397C30.5461 37.9373 30.301 37.6921 29.9986 37.6921C29.6962 37.6921 29.451 37.9373 29.451 38.2397C29.451 38.5421 29.6962 38.7873 29.9986 38.7873C30.301 38.7873 30.5461 38.5421 30.5461 38.2397Z" fill="#191A1C"/>
<path d="M24.2224 27.2871C24.2224 26.9847 23.9772 26.7395 23.6748 26.7395C23.3724 26.7395 23.1272 26.9847 23.1272 27.2871C23.1272 27.5895 23.3724 27.8346 23.6748 27.8346C23.9772 27.8346 24.2224 27.5895 24.2224 27.2871Z" fill="#191A1C"/>
<path d="M30.5461 23.6362C30.5461 23.3338 30.301 23.0886 29.9986 23.0886C29.6962 23.0886 29.451 23.3338 29.451 23.6362C29.451 23.9386 29.6962 24.1838 29.9986 24.1838C30.301 24.1838 30.5461 23.9386 30.5461 23.6362Z" fill="#191A1C"/>
<path d="M36.8692 27.2871C36.8692 26.9847 36.6241 26.7395 36.3216 26.7395C36.0192 26.7395 35.7741 26.9847 35.7741 27.2871C35.7741 27.5895 36.0192 27.8346 36.3216 27.8346C36.6241 27.8346 36.8692 27.5895 36.8692 27.2871Z" fill="#191A1C"/>
<path d="M36.8692 34.5883C36.8692 34.2859 36.6241 34.0408 36.3216 34.0408C36.0192 34.0408 35.7741 34.2859 35.7741 34.5883C35.7741 34.8908 36.0192 35.1359 36.3216 35.1359C36.6241 35.1359 36.8692 34.8908 36.8692 34.5883Z" fill="#191A1C"/>
<path d="M20.8786 29.1125C20.8786 28.9108 20.7153 28.7474 20.5136 28.7474C20.3119 28.7474 20.1485 28.9108 20.1485 29.1125C20.1485 29.3142 20.3119 29.4775 20.5136 29.4775C20.7153 29.4775 20.8786 29.3142 20.8786 29.1125Z" fill="#191A1C"/>
<path d="M20.8786 32.763C20.8786 32.5613 20.7153 32.3979 20.5136 32.3979C20.3119 32.3979 20.1485 32.5613 20.1485 32.763C20.1485 32.9647 20.3119 33.128 20.5136 33.128C20.7153 33.128 20.8786 32.9647 20.8786 32.763Z" fill="#191A1C"/>
<path d="M27.2017 21.8107C27.2017 21.609 27.0384 21.4457 26.8367 21.4457C26.635 21.4457 26.4716 21.609 26.4716 21.8107C26.4716 22.0124 26.635 22.1758 26.8367 22.1758C27.0384 22.1758 27.2017 22.0124 27.2017 21.8107Z" fill="#191A1C"/>
<path d="M24.0398 23.6363C24.0398 23.4346 23.8765 23.2712 23.6748 23.2712C23.4731 23.2712 23.3097 23.4346 23.3097 23.6363C23.3097 23.838 23.4731 24.0013 23.6748 24.0013C23.8765 24.0013 24.0398 23.838 24.0398 23.6363Z" fill="#191A1C"/>
<path d="M36.6865 23.6363C36.6865 23.4346 36.5232 23.2712 36.3215 23.2712C36.1198 23.2712 35.9564 23.4346 35.9564 23.6363C35.9564 23.838 36.1198 24.0013 36.3215 24.0013C36.5232 24.0013 36.6865 23.838 36.6865 23.6363Z" fill="#191A1C"/>
<path d="M33.5246 21.8107C33.5246 21.609 33.3613 21.4457 33.1596 21.4457C32.9579 21.4457 32.7945 21.609 32.7945 21.8107C32.7945 22.0124 32.9579 22.1758 33.1596 22.1758C33.3613 22.1758 33.5246 22.0124 33.5246 21.8107Z" fill="#191A1C"/>
<path d="M39.8484 32.763C39.8484 32.5613 39.6851 32.3979 39.4834 32.3979C39.2817 32.3979 39.1183 32.5613 39.1183 32.763C39.1183 32.9647 39.2817 33.128 39.4834 33.128C39.6851 33.128 39.8484 32.9647 39.8484 32.763Z" fill="#191A1C"/>
<path d="M39.8484 29.1125C39.8484 28.9108 39.6851 28.7474 39.4834 28.7474C39.2817 28.7474 39.1183 28.9108 39.1183 29.1125C39.1183 29.3142 39.2817 29.4775 39.4834 29.4775C39.6851 29.4775 39.8484 29.3142 39.8484 29.1125Z" fill="#191A1C"/>
<rect x="4" y="2.5" width="17.5" height="17.5" rx="4" fill="#191A1C"/>
<path fill-rule="evenodd" clip-rule="evenodd" d="M18.1016 7.85545L11.4323 14.4553L8.31311 11.3361L9.02022 10.629L11.436 13.0448L17.3982 7.14465L18.1016 7.85545Z" fill="white"/>
</svg>
