<svg width="90" height="90" viewBox="0 0 90 90" fill="none" xmlns="http://www.w3.org/2000/svg">
<circle cx="44.8752" cy="40.875" r="31.875" fill="#FFED49"/>
<path d="M40.018 52.3844V37.9204C40.018 37.4104 40.4315 36.997 40.9415 36.997H45.5045M50.991 52.3844V37.9204C50.991 37.4104 50.5776 36.997 50.0676 36.997H45.5045M45.5045 36.997V54.1501" stroke="black" stroke-width="1.5"/>
<path d="M27.6644 67.7117V75.2447C27.6644 77.8009 29.7366 79.8731 32.2928 79.8731H39.6851C42.2496 79.8731 44.5198 78.3992 45.6086 76.1899C46.7227 78.4034 49.0102 79.8731 51.588 79.8731H57.7072C60.2634 79.8731 62.3356 77.8009 62.3356 75.2447V68.7531V67.7117C62.3356 65.9375 60.8973 64.4992 59.1231 64.4992H30.8769C29.1027 64.4992 27.6644 65.9375 27.6644 67.7117Z" stroke="black" stroke-width="1.5"/>
<path d="M31.4415 72.8799V69.7538C31.4415 68.9378 32.1029 68.2763 32.9189 68.2763H42.0361" stroke="black" stroke-width="1.5"/>
<path d="M44.2433 68.2763H46.3874" stroke="black" stroke-width="1.5"/>
<path d="M60.75 56H63.7838C65.0078 56 66 56.9922 66 58.2162V58.7027C66 59.9267 65.0078 60.9189 63.7838 60.9189H26.2162C24.9922 60.9189 24 59.9267 24 58.7027V58.2162C24 56.9922 24.9922 56 26.2162 56H30.25" stroke="black" stroke-width="1.5"/>
<path d="M64.6476 56.0725C64.4353 52.1321 63.0239 48.3506 60.6026 45.2346C58.1812 42.1186 54.8654 39.817 51.0994 38.638L50.6217 40.1642C54.0765 41.2458 57.1184 43.3573 59.3398 46.2159C61.5612 49.0745 62.8559 52.5436 63.0507 56.1586L64.6476 56.0725Z" fill="black"/>
<path d="M26.0598 56.4626C26.1964 52.4067 27.6039 48.4963 30.0837 45.284C32.5634 42.0716 35.9899 39.7196 39.8789 38.5604L40.3357 40.093C36.7679 41.1565 33.6245 43.3141 31.3496 46.2612C29.0747 49.2082 27.7834 52.7956 27.6581 56.5164L26.0598 56.4626Z" fill="black"/>
<path d="M27.0732 68.7531H25.0244V73.875H27.0732" stroke="black" stroke-width="1.5"/>
<path d="M62.9268 73.875L64.9756 73.875L64.9756 68.7531L62.9268 68.7531" stroke="black" stroke-width="1.5"/>
</svg>
