<svg width="90" height="90" viewBox="0 0 90 90" fill="none" xmlns="http://www.w3.org/2000/svg">
<circle cx="48.75" cy="43.125" r="31.875" fill="#FFED49"/>
<path d="M41.306 61.9766C41.306 52.0785 48.721 51.6995 48.9855 51.6887C49.3009 51.6996 56.7155 52.0791 56.7155 61.9766V62.7644H73.0221L49.0106 37L25 62.7644H41.3057L41.306 61.9766ZM28.6214 61.1889L49.0101 39.3111L69.3987 61.1889H58.2752C57.8655 50.4985 49.1226 50.1167 48.9866 50.114C48.8963 50.1165 40.1541 50.4984 39.744 61.1889H28.6214Z" fill="#191A1C"/>
<path d="M52.9463 57.0564C52.9463 55.0338 51.3007 53.389 49.2789 53.389H48.7426C46.72 53.389 45.0752 55.0346 45.0752 57.0564V61.8109L35.9613 82.4786L37.4029 83.1141L38.2012 81.3036H59.8188L60.6171 83.1141L62.0587 82.4786L52.9466 61.8109L52.9463 57.0564ZM46.65 57.0564C46.65 55.9032 47.5886 54.9646 48.7418 54.9646H49.2781C50.4313 54.9646 51.3699 55.9033 51.3699 57.0564V61.189H46.6499L46.65 57.0564ZM59.1239 79.7282H38.8955L41.2163 74.4641H56.8026L59.1239 79.7282ZM56.1082 72.8886H41.912L44.0478 68.0441H53.972L56.1082 72.8886ZM53.2771 66.4685H44.7424L46.3756 62.7645H51.644L53.2771 66.4685Z" fill="#191A1C"/>
<rect x="9.375" y="3.75" width="26.25" height="26.25" rx="4" fill="#191A1C"/>
<path d="M15 15.1562L20.5263 20.625L30 11.25" stroke="white" stroke-width="1.5"/>
</svg>
