<svg width="90" height="90" viewBox="0 0 90 90" fill="none" xmlns="http://www.w3.org/2000/svg">
<circle cx="44.875" cy="40.875" r="31.875" fill="#FFED49"/>
<circle cx="67.3259" cy="57.2956" r="5.47823" stroke="black" stroke-width="1.5"/>
<path d="M51.7556 33.8193H58.9316V44.3803C58.9316 46.265 58.5604 48.1313 57.8391 49.8725C57.1178 51.6138 56.0607 53.196 54.728 54.5287C53.3953 55.8614 51.8131 56.9185 50.0718 57.6398C48.3306 58.361 46.4643 58.7323 44.5796 58.7323C42.6948 58.7323 40.8285 58.361 39.0873 57.6398C37.346 56.9185 35.7639 55.8614 34.4311 54.5287C33.0984 53.196 32.0413 51.6138 31.32 49.8725C30.5988 48.1313 30.2275 46.265 30.2275 44.3803V33.8193H37.4035" stroke="black" stroke-width="1.5"/>
<path d="M44.5801 58.6494V71.3619C44.5801 72.8574 44.8746 74.3382 45.4469 75.7199C46.0192 77.1016 46.8581 78.357 47.9156 79.4144C48.973 80.4719 50.2284 81.3107 51.6101 81.8831C52.9917 82.4554 54.4726 82.7499 55.9681 82.7499C57.4636 82.7499 58.9444 82.4554 60.3261 81.8831C61.7078 81.3108 62.9632 80.4719 64.0206 79.4144C65.0781 78.357 65.9169 77.1016 66.4892 75.7199C67.0616 74.3382 67.3561 72.8574 67.3561 71.3619V62.982" stroke="black" stroke-width="1.5"/>
<path d="M49.0479 29.8931V38.2876" stroke="black" stroke-width="1.5"/>
<path d="M39.9766 29.8931V38.2876" stroke="black" stroke-width="1.5"/>
</svg>
