<svg width="90" height="90" viewBox="0 0 90 90" fill="none" xmlns="http://www.w3.org/2000/svg">
<circle cx="48.75" cy="43.125" r="31.875" fill="#FFED49"/>
<path d="M38.75 48.75H59.25V69.25H38.75V48.75Z" stroke="#191A1C" stroke-width="1.5"/>
<mask id="path-3-inside-1_269_23877" fill="white">
<path d="M45 48H53V54C53 55.1046 52.1046 56 51 56H47C45.8954 56 45 55.1046 45 54V48Z"/>
</mask>
<path d="M45 48V46.5H43.5V48H45ZM53 48H54.5V46.5H53V48ZM45 49.5H53V46.5H45V49.5ZM51.5 48V54H54.5V48H51.5ZM51 54.5H47V57.5H51V54.5ZM46.5 54V48H43.5V54H46.5ZM47 54.5C46.7239 54.5 46.5 54.2761 46.5 54H43.5C43.5 55.933 45.067 57.5 47 57.5V54.5ZM51.5 54C51.5 54.2761 51.2761 54.5 51 54.5V57.5C52.933 57.5 54.5 55.933 54.5 54H51.5Z" fill="#191A1C" mask="url(#path-3-inside-1_269_23877)"/>
<rect x="17.377" y="69.4679" width="63.2457" height="12.7821" rx="6.39107" stroke="#191A1C" stroke-width="1.5"/>
<circle cx="74.2319" cy="75.8589" r="6.39107" stroke="#191A1C" stroke-width="1.5"/>
<circle cx="23.768" cy="75.8589" r="6.39107" stroke="#191A1C" stroke-width="1.5"/>
<circle cx="49.1586" cy="75.8589" r="6.39107" stroke="#191A1C" stroke-width="1.5"/>
<rect x="9.375" y="3.75" width="26.25" height="26.25" rx="4" fill="#191A1C"/>
<path d="M15 15.1562L20.5263 20.625L30 11.25" stroke="white" stroke-width="1.5"/>
</svg>
