<svg width="90" height="90" viewBox="0 0 90 90" fill="none" xmlns="http://www.w3.org/2000/svg">
<circle cx="44.875" cy="40.875" r="31.875" fill="#FFED49"/>
<mask id="path-2-inside-1_269_23280" fill="white">
<path fill-rule="evenodd" clip-rule="evenodd" d="M44.9922 80C56.314 80 65.4922 70.8218 65.4922 59.5V39H44.9922C33.6704 39 24.4922 48.1782 24.4922 59.5C24.4922 70.8218 33.6704 80 44.9922 80Z"/>
</mask>
<path d="M65.4922 39H66.9922V37.5H65.4922V39ZM63.9922 59.5C63.9922 69.9934 55.4856 78.5 44.9922 78.5V81.5C57.1425 81.5 66.9922 71.6503 66.9922 59.5H63.9922ZM63.9922 39V59.5H66.9922V39H63.9922ZM44.9922 40.5H65.4922V37.5H44.9922V40.5ZM25.9922 59.5C25.9922 49.0066 34.4988 40.5 44.9922 40.5V37.5C32.8419 37.5 22.9922 47.3497 22.9922 59.5H25.9922ZM44.9922 78.5C34.4988 78.5 25.9922 69.9934 25.9922 59.5H22.9922C22.9922 71.6503 32.8419 81.5 44.9922 81.5V78.5Z" fill="black" mask="url(#path-2-inside-1_269_23280)"/>
<path d="M30.499 73.4998L34.3476 69.257M57.8043 45.8003L48.5399 55.0647M34.3476 69.257V52.7979M34.3476 69.257H51.2009M34.3476 69.257L41.5423 62.0623M41.5423 62.0623V48.0671M41.5423 62.0623H55.636M41.5423 62.0623L48.5399 55.0647M48.5399 55.0647V45.8003M48.5399 55.0647H57.8043" stroke="black" stroke-width="1.5"/>
<path d="M21 83.0001L28 76.0001" stroke="black" stroke-width="1.5"/>
</svg>
