<svg width="90" height="90" viewBox="0 0 90 90" fill="none" xmlns="http://www.w3.org/2000/svg">
<circle cx="48.75" cy="43.125" r="31.875" fill="#FFED49"/>
<path d="M41.0052 58.7429H45.329V63.067C45.329 63.3528 45.5603 63.5844 45.8464 63.5844H52.167C52.4528 63.5844 52.6844 63.3528 52.6844 63.067V58.7432H57.0082C57.294 58.7432 57.5256 58.5116 57.5256 58.2258L57.5249 51.9056C57.5249 51.6198 57.2936 51.3882 57.0075 51.3882H52.684V47.0644C52.684 46.7786 52.4528 46.547 52.1666 46.547H45.8461C45.5603 46.547 45.3286 46.7786 45.3286 47.0644V51.3882H41.0049C40.7191 51.3882 40.4874 51.6198 40.4874 51.9056V58.2258C40.4881 58.5112 40.7194 58.7429 41.0052 58.7429L41.0052 58.7429ZM41.5226 52.4227H45.8464C46.1322 52.4227 46.3638 52.1911 46.3638 51.9053V47.5815H51.6499V51.9053C51.6499 52.1911 51.8812 52.4227 52.1674 52.4227H56.4911V57.7085H52.1667C51.8809 57.7085 51.6493 57.9401 51.6493 58.2259L51.6497 62.5497H46.3635V58.2259C46.3635 57.9401 46.1323 57.7085 45.8461 57.7085H41.5223L41.5226 52.4227Z" fill="#191A1C" stroke="#191A1C" stroke-width="0.6"/>
<path d="M37.424 40C34.9921 40 33.014 41.9784 33.014 44.41V76.9725C33.014 79.4041 34.9924 81.3825 37.424 81.3825H60.5897C63.0216 81.3825 64.9996 79.4041 64.9996 76.9725L65 44.41C65 41.9784 63.0216 40 60.59 40H37.424ZM63.9649 44.41V76.9725C63.9649 78.8336 62.4505 80.348 60.5898 80.348H37.4241C35.563 80.348 34.0486 78.8336 34.0486 76.9725L34.049 44.41C34.049 42.5489 35.5634 41.0345 37.4241 41.0345H60.5898C62.4508 41.0345 63.9653 42.5489 63.9653 44.41H63.9649Z" fill="#191A1C" stroke="#191A1C" stroke-width="0.6"/>
<path d="M59.2226 68.5841H38.7902C38.5044 68.5841 38.2728 68.8158 38.2728 69.1016C38.2728 69.3873 38.5041 69.619 38.7902 69.619H59.2226C59.5084 69.619 59.74 69.3873 59.74 69.1016C59.7397 68.8158 59.5084 68.5841 59.2226 68.5841Z" fill="#191A1C" stroke="#191A1C" stroke-width="0.6"/>
<path d="M59.2226 72.6069H38.7902C38.5044 72.6069 38.2728 72.8385 38.2728 73.1243C38.2728 73.4101 38.5041 73.6417 38.7902 73.6417H59.2226C59.5084 73.6417 59.74 73.4101 59.74 73.1243C59.7397 72.8385 59.5084 72.6069 59.2226 72.6069Z" fill="#191A1C" stroke="#191A1C" stroke-width="0.6"/>
<rect x="9.375" y="3.75" width="26.25" height="26.25" rx="4" fill="#191A1C"/>
<path d="M15 15.1562L20.5263 20.625L30 11.25" stroke="white" stroke-width="1.5"/>
</svg>
