<svg width="90" height="90" viewBox="0 0 90 90" fill="none" xmlns="http://www.w3.org/2000/svg">
<circle cx="48.75" cy="43.125" r="31.875" fill="#FFED49"/>
<rect x="9.375" y="3.75" width="26.25" height="26.25" rx="4" fill="#191A1C"/>
<path d="M15 15.1562L20.5263 20.625L30 11.25" stroke="white" stroke-width="1.5"/>
<path d="M40.3604 81.4762H57.3672" stroke="#191A1C" stroke-width="1.5"/>
<path d="M79 70.8639H79.75V70.5933L79.5771 70.385L79 70.8639ZM72.6778 63.2449L73.2549 62.766L72.6778 63.2449ZM62.8095 63.2449V62.4949H62.0595V63.2449H62.8095ZM62.8095 70.8639H62.0595V71.6139H62.8095V70.8639ZM75.1904 82.0901H76.6923V80.5901H75.1904V82.0901ZM67.3039 57.3248H58.5918V58.8248H67.3039V57.3248ZM79.5771 70.385L73.2549 62.766L72.1006 63.7238L78.4228 71.3429L79.5771 70.385ZM73.2549 62.766L69.657 58.43L68.5026 59.3878L72.1006 63.7238L73.2549 62.766ZM72.6778 62.4949H62.8095V63.9949H72.6778V62.4949ZM62.0595 63.2449V70.8639H63.5595V63.2449H62.0595ZM62.8095 71.6139H79V70.1139H62.8095V71.6139ZM79.75 79.0324V76.102H78.25V79.0324H79.75ZM79.75 76.102V70.8639H78.25V76.102H79.75ZM79 75.352H73.8299V76.852H79V75.352ZM67.3039 58.8248C67.7673 58.8248 68.2067 59.0312 68.5026 59.3878L69.657 58.43C69.0761 57.7299 68.2136 57.3248 67.3039 57.3248V58.8248ZM76.6923 82.0901C78.381 82.0901 79.75 80.7212 79.75 79.0324H78.25C78.25 79.8927 77.5526 80.5901 76.6923 80.5901V82.0901Z" fill="#191A1C"/>
<path d="M56.2789 74.5374V52.7687H19V81.3878H23.2177" stroke="#191A1C" stroke-width="1.5"/>
<circle cx="66.483" cy="81.2041" r="4.28401" stroke="#191A1C" stroke-width="1.5"/>
<circle cx="31.6532" cy="81.2041" r="4.28401" stroke="#191A1C" stroke-width="1.5"/>
</svg>
