<svg width="90" height="90" viewBox="0 0 90 90" fill="none" xmlns="http://www.w3.org/2000/svg">
<circle cx="48.75" cy="43.125" r="31.875" fill="#FFED49"/>
<path d="M46.1711 45.0607L62.6398 61.5293L52.2807 71.8885C47.733 76.4362 40.3597 76.4362 35.812 71.8885C31.2643 67.3408 31.2643 59.9675 35.812 55.4198L46.1711 45.0607Z" stroke="#191A1C" stroke-width="1.5"/>
<path d="M34.4049 56.7707H21V62.0293H32.5268" stroke="#191A1C" stroke-width="1.5"/>
<rect x="33.5543" y="55.5682" width="28.727" height="3.75854" transform="rotate(20.7208 33.5543 55.5682)" fill="#FFED49" stroke="#191A1C" stroke-width="1.5"/>
<path d="M55.0623 78.9305H76.8501V84.5671H55.0623V78.9305Z" fill="white" stroke="#191A1C" stroke-width="1.5"/>
<path d="M63.7024 62.405C62.5579 60.6748 60.3219 58.6487 60.3219 58.6487C60.3219 58.6487 61.347 57.5994 64.078 59.0243C72.717 63.5317 68.5853 78.5562 68.5853 78.5562H62.5756C62.5756 78.5562 67.1908 67.6783 63.7024 62.405Z" stroke="#191A1C" stroke-width="1.5"/>
<path d="M72.3414 56.0195C72.3414 56.0195 73.8439 54.3266 73.8439 53.0146C73.8439 51.7026 72.3414 50.0097 72.3414 50.0097C72.3414 50.0097 70.839 48.3169 70.839 47.0049C70.839 45.6929 72.3414 44 72.3414 44" stroke="#191A1C" stroke-width="1.5"/>
<path d="M76.0975 56.0195C76.0975 56.0195 77.6 54.3266 77.6 53.0146C77.6 51.7026 76.0975 50.0097 76.0975 50.0097C76.0975 50.0097 74.5951 48.3169 74.5951 47.0049C74.5951 45.6929 76.0975 44 76.0975 44" stroke="#191A1C" stroke-width="1.5"/>
<rect x="9.375" y="3.75" width="26.25" height="26.25" rx="4" fill="#191A1C"/>
<path d="M15 15.1562L20.5263 20.625L30 11.25" stroke="white" stroke-width="1.5"/>
</svg>
