<svg width="90" height="90" viewBox="0 0 90 90" fill="none" xmlns="http://www.w3.org/2000/svg">
<circle cx="48.75" cy="43.125" r="31.875" fill="#FFED49"/>
<path d="M32 65C32.5342 65.5264 32.534 65.5267 32.5338 65.5268C32.5338 65.5269 32.5336 65.527 32.5336 65.527C32.5335 65.5271 32.5336 65.527 32.5338 65.5268C32.5342 65.5264 32.5352 65.5255 32.5366 65.524C32.5396 65.5211 32.5446 65.5161 32.5517 65.5091C32.5659 65.4951 32.5883 65.4733 32.6187 65.4444C32.6795 65.3865 32.772 65.3005 32.8938 65.1927C33.1378 64.9769 33.4983 64.6753 33.9565 64.3391C34.8764 63.6644 36.1726 62.8639 37.6975 62.3334C39.2195 61.8038 40.9482 61.5502 42.757 61.9366C44.5585 62.3214 46.5027 63.3544 48.4435 65.5028L49.5565 64.4972C47.4321 62.1456 45.2186 60.9286 43.0704 60.4697C40.9295 60.0123 38.9163 60.3212 37.2047 60.9166C35.4959 61.5111 34.0665 62.3981 33.0693 63.1296C32.569 63.4966 32.173 63.8277 31.9002 64.069C31.7636 64.1898 31.6576 64.2883 31.5845 64.3579C31.548 64.3927 31.5196 64.4203 31.4997 64.4398C31.4898 64.4496 31.482 64.4574 31.4763 64.463C31.4735 64.4658 31.4712 64.4681 31.4694 64.4699C31.4685 64.4708 31.4678 64.4715 31.4672 64.4721C31.4669 64.4724 31.4666 64.4728 31.4664 64.473C31.4661 64.4733 31.4658 64.4736 32 65ZM48.4435 65.5028C50.5679 67.8544 52.7814 69.0714 54.9296 69.5303C57.0705 69.9877 59.0837 69.6788 60.7953 69.0834C62.5041 68.4889 63.9335 67.6019 64.9307 66.8704C65.431 66.5034 65.827 66.1723 66.0998 65.931C66.2364 65.8102 66.3424 65.7117 66.4155 65.6421C66.452 65.6073 66.4804 65.5797 66.5003 65.5602C66.5102 65.5504 66.518 65.5426 66.5237 65.537C66.5265 65.5342 66.5288 65.5319 66.5306 65.5301C66.5315 65.5292 66.5322 65.5285 66.5328 65.5279C66.5331 65.5276 66.5334 65.5272 66.5336 65.527C66.5339 65.5267 66.5342 65.5264 66 65C65.4658 64.4736 65.466 64.4733 65.4662 64.4732C65.4662 64.4731 65.4664 64.473 65.4664 64.473C65.4665 64.4729 65.4664 64.473 65.4662 64.4732C65.4658 64.4736 65.4648 64.4745 65.4634 64.476C65.4604 64.4789 65.4554 64.4839 65.4483 64.4909C65.4341 64.5049 65.4117 64.5267 65.3813 64.5556C65.3205 64.6135 65.228 64.6995 65.1062 64.8073C64.8622 65.0231 64.5017 65.3247 64.0435 65.6609C63.1236 66.3356 61.8274 67.1361 60.3025 67.6666C58.7805 68.1962 57.0518 68.4498 55.243 68.0634C53.4415 67.6786 51.4973 66.6456 49.5565 64.4972L48.4435 65.5028Z" fill="#191A1C"/>
<mask id="path-3-inside-1_269_23859" fill="white">
<path fill-rule="evenodd" clip-rule="evenodd" d="M54 38H43V49.0242C36.0088 51.4953 31 58.1627 31 66C31 75.9411 39.0589 84 49 84C58.9411 84 67 75.9411 67 66C67 57.7938 61.5086 50.8702 54 48.7035V38Z"/>
</mask>
<path d="M43 38V36.5H41.5V38H43ZM54 38H55.5V36.5H54V38ZM43 49.0242L43.4999 50.4385L44.5 50.085V49.0242H43ZM54 48.7035H52.5V49.8319L53.5841 50.1447L54 48.7035ZM43 39.5H54V36.5H43V39.5ZM44.5 49.0242V38H41.5V49.0242H44.5ZM32.5 66C32.5 58.8181 37.0893 52.7043 43.4999 50.4385L42.5001 47.61C34.9284 50.2862 29.5 57.5072 29.5 66H32.5ZM49 82.5C39.8873 82.5 32.5 75.1127 32.5 66H29.5C29.5 76.7696 38.2304 85.5 49 85.5V82.5ZM65.5 66C65.5 75.1127 58.1127 82.5 49 82.5V85.5C59.7696 85.5 68.5 76.7696 68.5 66H65.5ZM53.5841 50.1447C60.4679 52.1311 65.5 58.4798 65.5 66H68.5C68.5 57.1078 62.5493 49.6093 54.4159 47.2623L53.5841 50.1447ZM52.5 38V48.7035H55.5V38H52.5Z" fill="#191A1C" mask="url(#path-3-inside-1_269_23859)"/>
<rect x="9.375" y="3.75" width="26.25" height="26.25" rx="4" fill="#191A1C"/>
<path d="M15 15.1562L20.5263 20.625L30 11.25" stroke="white" stroke-width="1.5"/>
<path d="M45 35.0556V30.9445H52V34.6667" stroke="#191A1C" stroke-width="1.5"/>
</svg>
