<svg width="90" height="90" viewBox="0 0 90 90" fill="none" xmlns="http://www.w3.org/2000/svg">
<circle cx="44.875" cy="40.875" r="31.875" fill="#FFED49"/>
<path d="M41.2157 46.1118V41.6702H48.7843V46.1119C48.7843 47.2655 49.5461 48.2241 50.5403 48.6369C51.5398 49.0517 52.7453 48.9028 53.5584 48.0897L56.6994 44.9487L62.0513 50.3006L58.9103 53.4416C58.0972 54.2546 57.9482 55.4602 58.3631 56.4597C58.7758 57.4539 59.7345 58.2157 60.8881 58.2157L65.3298 58.2157V65.7843H60.8881C59.7345 65.7843 58.7758 66.5461 58.3631 67.5404C57.9482 68.5399 58.0972 69.7454 58.9103 70.5585L62.0512 73.6994L56.6993 79.0513L53.5584 75.9103C52.7453 75.0972 51.5398 74.9483 50.5403 75.3631C49.5461 75.7758 48.7843 76.7345 48.7843 77.8881V82.3298H41.2157V77.8881C41.2157 76.7345 40.4539 75.7759 39.4596 75.3632C38.4601 74.9483 37.2546 75.0972 36.4415 75.9103L33.3006 79.0512L27.9487 73.6994L31.0896 70.5585C31.9027 69.7454 32.0517 68.5399 31.6368 67.5404C31.2241 66.5461 30.2655 65.7843 29.1118 65.7843H24.6702V58.2157H29.1118C30.2655 58.2157 31.2241 57.4539 31.6368 56.4596C32.0517 55.4601 31.9027 54.2546 31.0896 53.4415L27.9487 50.3006L33.3005 44.9487L36.4415 48.0897C37.2546 48.9028 38.4601 49.0517 39.4596 48.6368C40.4539 48.2241 41.2157 47.2655 41.2157 46.1118ZM45 71.6261C50.3163 71.6261 54.6261 67.3163 54.6261 62C54.6261 56.6837 50.3163 52.3739 45 52.3739C39.6837 52.3739 35.3739 56.6837 35.3739 62C35.3739 67.3163 39.6837 71.6261 45 71.6261Z" stroke="black" stroke-width="1.34043"/>
</svg>
