<svg width="25" height="24" viewBox="0 0 25 24" fill="none" xmlns="http://www.w3.org/2000/svg">
<path d="M20.0177 7.05V7.8C20.4319 7.8 20.7677 7.46421 20.7677 7.05H20.0177ZM20.75 12C20.75 16.5563 17.0563 20.25 12.5 20.25V21.75C17.8848 21.75 22.25 17.3848 22.25 12H20.75ZM12.5 20.25C7.94365 20.25 4.25 16.5563 4.25 12H2.75C2.75 17.3848 7.11522 21.75 12.5 21.75V20.25ZM4.25 12C4.25 7.44365 7.94365 3.75 12.5 3.75V2.25C7.11522 2.25 2.75 6.61522 2.75 12H4.25ZM12.5 3.75C15.3794 3.75 17.9147 5.22446 19.3917 7.46303L20.6437 6.63696C18.9009 3.99554 15.9045 2.25 12.5 2.25V3.75ZM20.0177 6.3H15.5V7.8H20.0177V6.3ZM20.7677 7.05V2.5H19.2677V7.05H20.7677Z" fill="#FFED49"/>
</svg>
