<svg width="30" height="21" viewBox="0 0 30 21" fill="none" xmlns="http://www.w3.org/2000/svg">
<path d="M27.1495 2.56296C24.8299 0.795683 19.6754 0.709381 14.9995 0.709381C10.3236 0.709381 5.16903 0.795683 2.84948 2.56296C0.529935 4.33023 0.456299 8.15932 0.456299 10.442C0.456299 12.7248 0.529935 16.5539 2.84948 18.3211C5.16903 20.0884 10.3236 20.175 14.9995 20.175V20.1747C19.6754 20.1747 24.8299 20.0884 27.1495 18.3211C29.469 16.5539 29.5427 12.7248 29.5427 10.442C29.5427 8.15932 29.469 4.33023 27.1495 2.56296ZM19.6079 10.9569L19.6088 10.9581L11.7073 15.1689C11.6649 15.1995 11.6187 15.224 11.5689 15.2428L11.5592 15.2481L11.5586 15.2461C11.4947 15.2691 11.4266 15.2838 11.3548 15.2838C11.0193 15.2838 10.7474 15.0116 10.7474 14.6764V6.1894C10.7474 5.85391 11.0196 5.58205 11.3548 5.58205C11.4493 5.58205 11.538 5.60561 11.6178 5.64419L11.6181 5.6439L19.6088 9.92718L19.6085 9.92777C19.7808 10.035 19.8966 10.2247 19.8966 10.4423C19.8963 10.66 19.7803 10.8497 19.6079 10.9569Z" fill="#2967EB"/>
</svg>
