<svg width="60" height="60" viewBox="0 0 60 60" fill="none" xmlns="http://www.w3.org/2000/svg">
<circle cx="30.0003" cy="28.6667" r="21.3333" fill="#FFED49"/>
<path d="M29.8136 56.609H29.8104C29.0102 56.6027 26.9745 55.095 24.9694 53.0229C22.1821 50.1423 15.7288 42.2629 16.0088 31.3394C16.0134 31.1614 16.1368 31.0079 16.3103 30.9664L16.8251 30.8407C21.3455 29.7338 25.469 27.2454 28.7476 23.6441L29.5215 22.7955C29.5963 22.7136 29.7019 22.6666 29.813 22.6666H29.8162C29.9278 22.6675 30.0343 22.7159 30.1091 22.8L30.6138 23.3713C34.0665 27.2726 38.4559 29.8981 43.3074 30.9641C43.4841 31.0027 43.6118 31.1568 43.6172 31.338C43.9256 42.0643 37.5012 50.0229 34.7248 52.9467C32.696 55.0835 30.6803 56.5889 29.8222 56.609H29.813L29.8136 56.609ZM16.7924 31.6609C16.6853 39.2648 19.9252 45.3213 22.6816 49.0814C25.8875 53.4537 29.2231 55.7918 29.812 55.8193C30.2183 55.7984 31.891 54.7849 34.1526 52.403C36.8351 49.5785 43.0069 41.9428 42.8354 31.6666C37.9396 30.5233 33.5149 27.8408 30.0231 23.8942L29.8089 23.6528L29.3316 24.1762C25.9468 27.8931 21.6867 30.4631 17.0126 31.607L16.7924 31.6609Z" fill="#191A1C" stroke="#191A1C" stroke-width="0.417391"/>
<path d="M30.4053 47.9263C30.3406 47.9263 30.2764 47.9109 30.218 47.8785C30.09 47.8098 30.0107 47.6764 30.0107 47.5315V31.7448C30.0107 31.6108 30.0786 31.4857 30.1911 31.4132C30.3036 31.3408 30.4454 31.3293 30.5673 31.3846L38.4607 34.9366C38.6164 35.0068 38.7089 35.1686 38.6912 35.3383C38.658 35.6553 37.7916 43.1628 30.6219 47.8619C30.5563 47.9051 30.4808 47.9269 30.4052 47.9269L30.4053 47.9263ZM30.8001 32.3551V46.7822C36.3695 42.7846 37.6422 36.8797 37.8658 35.534L30.8001 32.3551Z" fill="#191A1C" stroke="#191A1C" stroke-width="0.417391"/>
<rect x="4" y="2.5" width="17.5" height="17.5" rx="2.78261" fill="#191A1C"/>
<path fill-rule="evenodd" clip-rule="evenodd" d="M18.102 7.85545L11.4327 14.4553L8.31348 11.3361L9.02059 10.629L11.4364 13.0448L17.3986 7.14465L18.102 7.85545Z" fill="white"/>
</svg>
