<svg width="60" height="60" viewBox="0 0 60 60" fill="none" xmlns="http://www.w3.org/2000/svg">
<circle cx="30.3333" cy="28.6667" r="21.3333" fill="#FFED49"/>
<rect x="4" y="2.5" width="17.5" height="17.5" rx="2.78261" fill="#191A1C"/>
<path fill-rule="evenodd" clip-rule="evenodd" d="M18.101 7.85539L11.4317 14.4553L8.3125 11.336L9.01961 10.6289L11.4354 13.0447L17.3976 7.14459L18.101 7.85539Z" fill="white"/>
<path d="M22.9292 57.9997C18.0631 57.9997 13.9263 54.6195 13.0899 50.0544C9.69224 49.8296 7 47.0756 7 43.7241C7 40.6316 9.25009 38.0444 12.3223 37.4909V37.4571C12.3223 33.3176 15.6987 29.9519 19.8496 29.9519C21.1089 29.9519 22.3301 30.2614 23.4255 30.8513C24.9604 27.3236 28.5815 25 32.6614 25C37.701 25 41.9496 28.6414 42.5743 33.2956C43.4035 32.9281 44.2993 32.7371 45.2069 32.7371C48.8327 32.7371 51.7835 35.7039 51.7835 39.3528C51.7835 40.332 51.5649 41.3016 51.1443 42.189C52.3276 43.3665 53 44.9599 53 46.6259C53 50.1028 50.1345 52.9321 46.6132 52.9321C45.4822 52.9321 44.3868 52.6395 43.4151 52.0786C41.8564 54.1483 39.4424 55.3669 36.8428 55.3669C34.8445 55.3669 32.9651 54.6585 31.4682 53.36C29.6624 56.2421 26.46 57.9997 22.9292 57.9997ZM14.0881 48.8189L14.2164 49.3702C14.7415 53.5846 18.4861 56.764 22.9292 56.764C26.2818 56.764 29.2947 54.9723 30.7916 52.0902L31.1837 51.3357L31.7658 51.9475C33.1082 53.3547 34.9117 54.1308 36.8434 54.1308C39.2337 54.1308 41.4387 52.9243 42.7431 50.9053L43.0852 50.3758L43.5984 50.7385C44.4847 51.3647 45.5278 51.696 46.6136 51.696C49.4649 51.696 51.7839 49.4232 51.7839 46.6281C51.7839 45.1628 51.1328 43.7677 49.9971 42.8005L49.605 42.4669L49.8617 42.0147C50.325 41.2023 50.5674 40.2811 50.5674 39.3526C50.5674 36.3882 48.1628 33.9752 45.207 33.9752C44.202 33.9752 43.2183 34.2605 42.3605 34.8021L41.4576 35.3727L41.4315 34.2919C41.3246 29.8502 37.3899 26.2377 32.6591 26.2377C28.8313 26.2377 25.4719 28.5371 24.3003 31.9584L24.0413 32.7104L23.388 32.2703C22.3401 31.5643 21.1164 31.1895 19.8453 31.1895C16.3644 31.1895 13.5346 34.0016 13.5346 37.4567C13.5346 37.6308 13.5464 37.8049 13.5607 37.9742L13.6106 38.5859L13.0095 38.6415C10.2746 38.8978 8.20988 41.0812 8.20988 43.7239C8.20988 46.5408 10.5978 48.8305 13.5322 48.8305L14.0881 48.8189Z" fill="black"/>
<circle cx="49" cy="24" r="3.4" stroke="#191A1C" stroke-width="1.2"/>
</svg>
