<svg width="60" height="60" viewBox="0 0 60 60" fill="none" xmlns="http://www.w3.org/2000/svg">
<circle cx="30.0003" cy="28.6667" r="21.3333" fill="#FFED49"/>
<path d="M14.9201 47.3663C14.9201 46.9632 14.5932 46.6362 14.1901 46.6362C13.7869 46.6362 13.46 46.9632 13.46 47.3663C13.46 47.7694 13.7869 48.0964 14.1901 48.0964C14.5932 48.0964 14.9201 47.7694 14.9201 47.3663Z" fill="#191A1C"/>
<path d="M18.0823 41.8895C18.0823 41.4864 17.7553 41.1594 17.3522 41.1594C16.9491 41.1594 16.6221 41.4864 16.6221 41.8895C16.6221 42.2926 16.9491 42.6196 17.3522 42.6196C17.7553 42.6196 18.0823 42.2926 18.0823 41.8895Z" fill="#191A1C"/>
<path d="M24.4055 41.8895C24.4055 41.4864 24.0785 41.1594 23.6754 41.1594C23.2723 41.1594 22.9453 41.4864 22.9453 41.8895C22.9453 42.2926 23.2723 42.6196 23.6754 42.6196C24.0785 42.6196 24.4055 42.2926 24.4055 41.8895Z" fill="#191A1C"/>
<path d="M27.5676 47.3663C27.5676 46.9632 27.2406 46.6362 26.8375 46.6362C26.4344 46.6362 26.1074 46.9632 26.1074 47.3663C26.1074 47.7694 26.4344 48.0964 26.8375 48.0964C27.2406 48.0964 27.5676 47.7694 27.5676 47.3663Z" fill="#191A1C"/>
<path d="M24.4055 52.8422C24.4055 52.439 24.0785 52.1121 23.6754 52.1121C23.2723 52.1121 22.9453 52.439 22.9453 52.8422C22.9453 53.2453 23.2723 53.5722 23.6754 53.5722C24.0785 53.5722 24.4055 53.2453 24.4055 52.8422Z" fill="#191A1C"/>
<path d="M18.0823 52.8422C18.0823 52.439 17.7553 52.1121 17.3522 52.1121C16.9491 52.1121 16.6221 52.439 16.6221 52.8422C16.6221 53.2453 16.9491 53.5722 17.3522 53.5722C17.7553 53.5722 18.0823 53.2453 18.0823 52.8422Z" fill="#191A1C"/>
<path d="M21.6082 47.3664C21.6082 46.7615 21.1179 46.2712 20.5131 46.2712C19.9083 46.2712 19.418 46.7616 19.418 47.3664C19.418 47.9712 19.9083 48.4615 20.5131 48.4615C21.1179 48.4615 21.6082 47.9711 21.6082 47.3664Z" fill="#191A1C"/>
<path d="M24.588 45.541C24.588 45.0368 24.1795 44.6283 23.6754 44.6283C23.1712 44.6283 22.7627 45.0368 22.7627 45.541C22.7627 46.0451 23.1712 46.4536 23.6754 46.4536C24.1795 46.4536 24.588 46.0451 24.588 45.541Z" fill="#191A1C"/>
<path d="M21.4259 43.7156C21.4259 43.2115 21.0174 42.803 20.5132 42.803C20.0091 42.803 19.6006 43.2115 19.6006 43.7156C19.6006 44.2197 20.0091 44.6283 20.5132 44.6283C21.0174 44.6283 21.4259 44.2198 21.4259 43.7156Z" fill="#191A1C"/>
<path d="M18.2648 45.541C18.2648 45.0368 17.8563 44.6283 17.3521 44.6283C16.848 44.6283 16.4395 45.0368 16.4395 45.541C16.4395 46.0451 16.848 46.4536 17.3521 46.4536C17.8563 46.4536 18.2648 46.0451 18.2648 45.541Z" fill="#191A1C"/>
<path d="M24.588 49.1916C24.588 48.6875 24.1795 48.2789 23.6754 48.2789C23.1712 48.2789 22.7627 48.6874 22.7627 49.1916C22.7627 49.6957 23.1712 50.1042 23.6754 50.1042C24.1795 50.1042 24.588 49.6957 24.588 49.1916Z" fill="#191A1C"/>
<path d="M21.4259 51.0169C21.4259 50.5128 21.0174 50.1042 20.5132 50.1042C20.0091 50.1042 19.6006 50.5128 19.6006 51.0169C19.6006 51.5211 20.0091 51.9296 20.5132 51.9296C21.0174 51.9296 21.4259 51.5211 21.4259 51.0169Z" fill="#191A1C"/>
<path d="M18.2648 49.1916C18.2648 48.6875 17.8563 48.2789 17.3521 48.2789C16.848 48.2789 16.4395 48.6874 16.4395 49.1916C16.4395 49.6957 16.848 50.1042 17.3521 50.1042C17.8563 50.1042 18.2648 49.6957 18.2648 49.1916Z" fill="#191A1C"/>
<path d="M14.7377 51.0169C14.7377 50.7145 14.4926 50.4694 14.1901 50.4694C13.8877 50.4694 13.6426 50.7145 13.6426 51.0169C13.6426 51.3193 13.8877 51.5645 14.1901 51.5645C14.4926 51.5645 14.7377 51.3193 14.7377 51.0169Z" fill="#191A1C"/>
<path d="M21.0619 54.6676C21.0619 54.3652 20.8168 54.12 20.5144 54.12C20.212 54.12 19.9668 54.3652 19.9668 54.6676C19.9668 54.97 20.212 55.2151 20.5144 55.2151C20.8168 55.2151 21.0619 54.97 21.0619 54.6676Z" fill="#191A1C"/>
<path d="M14.7377 43.7157C14.7377 43.4133 14.4926 43.1681 14.1901 43.1681C13.8877 43.1681 13.6426 43.4133 13.6426 43.7157C13.6426 44.0181 13.8877 44.2632 14.1901 44.2632C14.4926 44.2632 14.7377 44.0181 14.7377 43.7157Z" fill="#191A1C"/>
<path d="M21.0619 40.0643C21.0619 39.7619 20.8168 39.5167 20.5144 39.5167C20.212 39.5167 19.9668 39.7619 19.9668 40.0643C19.9668 40.3667 20.212 40.6119 20.5144 40.6119C20.8168 40.6119 21.0619 40.3667 21.0619 40.0643Z" fill="#191A1C"/>
<path d="M27.3842 43.7157C27.3842 43.4133 27.139 43.1681 26.8366 43.1681C26.5342 43.1681 26.2891 43.4133 26.2891 43.7157C26.2891 44.0181 26.5342 44.2632 26.8366 44.2632C27.139 44.2632 27.3842 44.0181 27.3842 43.7157Z" fill="#191A1C"/>
<path d="M27.3842 51.0169C27.3842 50.7145 27.139 50.4694 26.8366 50.4694C26.5342 50.4694 26.2891 50.7145 26.2891 51.0169C26.2891 51.3193 26.5342 51.5645 26.8366 51.5645C27.139 51.5645 27.3842 51.3193 27.3842 51.0169Z" fill="#191A1C"/>
<path d="M14.5553 54.6675C14.5553 54.4658 14.3919 54.3025 14.1902 54.3025C13.9885 54.3025 13.8252 54.4658 13.8252 54.6675C13.8252 54.8692 13.9885 55.0326 14.1902 55.0326C14.3919 55.0326 14.5553 54.8692 14.5553 54.6675Z" fill="#191A1C"/>
<path d="M17.7174 56.4929C17.7174 56.2911 17.5541 56.1278 17.3524 56.1278C17.1506 56.1278 16.9873 56.2911 16.9873 56.4929C16.9873 56.6946 17.1506 56.8579 17.3524 56.8579C17.5541 56.8579 17.7174 56.6946 17.7174 56.4929Z" fill="#191A1C"/>
<path d="M11.3942 45.5409C11.3942 45.3392 11.2308 45.1759 11.0291 45.1759C10.8274 45.1759 10.6641 45.3395 10.6641 45.5409C10.6641 45.7427 10.8274 45.906 11.0291 45.906C11.2308 45.906 11.3942 45.7427 11.3942 45.5409Z" fill="#191A1C"/>
<path d="M11.3942 49.1916C11.3942 48.9899 11.2308 48.8265 11.0291 48.8265C10.8274 48.8265 10.6641 48.9902 10.6641 49.1916C10.6641 49.3933 10.8274 49.5566 11.0291 49.5566C11.2308 49.5566 11.3942 49.3933 11.3942 49.1916Z" fill="#191A1C"/>
<path d="M27.2018 54.6675C27.2018 54.4658 27.0384 54.3025 26.8367 54.3025C26.635 54.3025 26.4717 54.4658 26.4717 54.6675C26.4717 54.8692 26.635 55.0326 26.8367 55.0326C27.0384 55.0326 27.2018 54.8692 27.2018 54.6675Z" fill="#191A1C"/>
<path d="M24.0406 56.4929C24.0406 56.2911 23.8773 56.1278 23.6756 56.1278C23.4739 56.1278 23.3105 56.2911 23.3105 56.4929C23.3105 56.6946 23.4739 56.8579 23.6756 56.8579C23.8773 56.8579 24.0406 56.6946 24.0406 56.4929Z" fill="#191A1C"/>
<path d="M17.7174 38.2398C17.7174 38.0381 17.5541 37.8748 17.3524 37.8748C17.1506 37.8748 16.9873 38.0381 16.9873 38.2398C16.9873 38.4415 17.1506 38.6049 17.3524 38.6049C17.5541 38.6049 17.7174 38.4415 17.7174 38.2398Z" fill="#191A1C"/>
<path d="M14.5553 40.0643C14.5553 39.8626 14.3919 39.6992 14.1902 39.6992C13.9885 39.6992 13.8252 39.8626 13.8252 40.0643C13.8252 40.266 13.9885 40.4293 14.1902 40.4293C14.3919 40.4293 14.5553 40.266 14.5553 40.0643Z" fill="#191A1C"/>
<path d="M27.2018 40.0643C27.2018 39.8626 27.0384 39.6992 26.8367 39.6992C26.635 39.6992 26.4717 39.8626 26.4717 40.0643C26.4717 40.266 26.635 40.4293 26.8367 40.4293C27.0384 40.4293 27.2018 40.266 27.2018 40.0643Z" fill="#191A1C"/>
<path d="M24.0406 38.2398C24.0406 38.0381 23.8773 37.8748 23.6756 37.8748C23.4739 37.8748 23.3105 38.0381 23.3105 38.2398C23.3105 38.4415 23.4739 38.6049 23.6756 38.6049C23.8773 38.6049 24.0406 38.4415 24.0406 38.2398Z" fill="#191A1C"/>
<path d="M30.3639 49.1916C30.3639 48.9899 30.2005 48.8265 29.9988 48.8265C29.7971 48.8265 29.6338 48.9899 29.6338 49.1916C29.6338 49.3933 29.7971 49.5566 29.9988 49.5566C30.2005 49.5566 30.3639 49.3933 30.3639 49.1916Z" fill="#191A1C"/>
<path d="M30.3639 45.5409C30.3639 45.3392 30.2005 45.1759 29.9988 45.1759C29.7971 45.1759 29.6338 45.3392 29.6338 45.5409C29.6338 45.7427 29.7971 45.906 29.9988 45.906C30.2005 45.906 30.3639 45.7427 30.3639 45.5409Z" fill="#191A1C"/>
<path d="M33.8899 47.3663C33.8899 46.9632 33.5629 46.6362 33.1598 46.6362C32.7567 46.6362 32.4297 46.9632 32.4297 47.3663C32.4297 47.7694 32.7567 48.0964 33.1598 48.0964C33.5629 48.0964 33.8899 47.7694 33.8899 47.3663Z" fill="#191A1C"/>
<path d="M37.052 41.8895C37.052 41.4864 36.725 41.1594 36.3219 41.1594C35.9188 41.1594 35.5918 41.4864 35.5918 41.8895C35.5918 42.2926 35.9188 42.6196 36.3219 42.6196C36.725 42.6196 37.052 42.2926 37.052 41.8895Z" fill="#191A1C"/>
<path d="M43.3752 41.8895C43.3752 41.4864 43.0482 41.1594 42.6451 41.1594C42.242 41.1594 41.915 41.4864 41.915 41.8895C41.915 42.2926 42.242 42.6196 42.6451 42.6196C43.0482 42.6196 43.3752 42.2926 43.3752 41.8895Z" fill="#191A1C"/>
<path d="M46.5373 47.3663C46.5373 46.9632 46.2104 46.6362 45.8072 46.6362C45.4041 46.6362 45.0771 46.9632 45.0771 47.3663C45.0771 47.7694 45.4041 48.0964 45.8072 48.0964C46.2104 48.0964 46.5373 47.7694 46.5373 47.3663Z" fill="#191A1C"/>
<path d="M43.3752 52.8422C43.3752 52.439 43.0482 52.1121 42.6451 52.1121C42.242 52.1121 41.915 52.439 41.915 52.8422C41.915 53.2453 42.242 53.5722 42.6451 53.5722C43.0482 53.5722 43.3752 53.2453 43.3752 52.8422Z" fill="#191A1C"/>
<path d="M37.052 52.8422C37.052 52.439 36.725 52.1121 36.3219 52.1121C35.9188 52.1121 35.5918 52.439 35.5918 52.8422C35.5918 53.2453 35.9188 53.5722 36.3219 53.5722C36.725 53.5722 37.052 53.2453 37.052 52.8422Z" fill="#191A1C"/>
<path d="M40.5789 47.3664C40.5789 46.7615 40.0886 46.2712 39.4838 46.2712C38.879 46.2712 38.3887 46.7616 38.3887 47.3664C38.3887 47.9712 38.879 48.4615 39.4838 48.4615C40.0886 48.4615 40.5789 47.9711 40.5789 47.3664Z" fill="#191A1C"/>
<path d="M43.5577 45.541C43.5577 45.0368 43.1492 44.6283 42.6451 44.6283C42.1409 44.6283 41.7324 45.0368 41.7324 45.541C41.7324 46.0451 42.1409 46.4536 42.6451 46.4536C43.1492 46.4536 43.5577 46.0451 43.5577 45.541Z" fill="#191A1C"/>
<path d="M40.3966 43.7156C40.3966 43.2115 39.9881 42.803 39.4839 42.803C38.9798 42.803 38.5713 43.2115 38.5713 43.7156C38.5713 44.2197 38.9798 44.6283 39.4839 44.6283C39.9881 44.6283 40.3966 44.2198 40.3966 43.7156Z" fill="#191A1C"/>
<path d="M37.2345 45.541C37.2345 45.0368 36.826 44.6283 36.3218 44.6283C35.8177 44.6283 35.4092 45.0368 35.4092 45.541C35.4092 46.0451 35.8177 46.4536 36.3218 46.4536C36.8259 46.4536 37.2345 46.0451 37.2345 45.541Z" fill="#191A1C"/>
<path d="M43.5577 49.1916C43.5577 48.6875 43.1492 48.2789 42.6451 48.2789C42.1409 48.2789 41.7324 48.6874 41.7324 49.1916C41.7324 49.6957 42.1409 50.1042 42.6451 50.1042C43.1492 50.1042 43.5577 49.6957 43.5577 49.1916Z" fill="#191A1C"/>
<path d="M40.3966 51.0169C40.3966 50.5128 39.9881 50.1042 39.4839 50.1042C38.9798 50.1042 38.5713 50.5128 38.5713 51.0169C38.5713 51.5211 38.9798 51.9296 39.4839 51.9296C39.9881 51.9296 40.3966 51.5211 40.3966 51.0169Z" fill="#191A1C"/>
<path d="M37.2345 49.1916C37.2345 48.6875 36.826 48.2789 36.3218 48.2789C35.8177 48.2789 35.4092 48.6874 35.4092 49.1916C35.4092 49.6957 35.8177 50.1042 36.3218 50.1042C36.8259 50.1042 37.2345 49.6957 37.2345 49.1916Z" fill="#191A1C"/>
<path d="M33.7074 51.0169C33.7074 50.7145 33.4623 50.4694 33.1599 50.4694C32.8575 50.4694 32.6123 50.7145 32.6123 51.0169C32.6123 51.3193 32.8575 51.5645 33.1599 51.5645C33.4623 51.5645 33.7074 51.3193 33.7074 51.0169Z" fill="#191A1C"/>
<path d="M40.0317 54.6676C40.0317 54.3652 39.7865 54.12 39.4841 54.12C39.1817 54.12 38.9365 54.3652 38.9365 54.6676C38.9365 54.97 39.1817 55.2151 39.4841 55.2151C39.7865 55.2151 40.0317 54.97 40.0317 54.6676Z" fill="#191A1C"/>
<path d="M33.7074 43.7157C33.7074 43.4133 33.4623 43.1681 33.1599 43.1681C32.8575 43.1681 32.6123 43.4133 32.6123 43.7157C32.6123 44.0181 32.8575 44.2632 33.1599 44.2632C33.4623 44.2632 33.7074 44.0181 33.7074 43.7157Z" fill="#191A1C"/>
<path d="M40.0317 40.0643C40.0317 39.7619 39.7865 39.5167 39.4841 39.5167C39.1817 39.5167 38.9365 39.7619 38.9365 40.0643C38.9365 40.3667 39.1817 40.6119 39.4841 40.6119C39.7865 40.6119 40.0317 40.3667 40.0317 40.0643Z" fill="#191A1C"/>
<path d="M46.3549 43.7157C46.3549 43.4133 46.1097 43.1681 45.8073 43.1681C45.5049 43.1681 45.2598 43.4133 45.2598 43.7157C45.2598 44.0181 45.5049 44.2632 45.8073 44.2632C46.1097 44.2632 46.3549 44.0181 46.3549 43.7157Z" fill="#191A1C"/>
<path d="M46.3549 51.0169C46.3549 50.7145 46.1097 50.4694 45.8073 50.4694C45.5049 50.4694 45.2598 50.7145 45.2598 51.0169C45.2598 51.3193 45.5049 51.5645 45.8073 51.5645C46.1097 51.5645 46.3549 51.3193 46.3549 51.0169Z" fill="#191A1C"/>
<path d="M33.525 54.6675C33.525 54.4658 33.3617 54.3025 33.16 54.3025C32.9583 54.3025 32.7949 54.4658 32.7949 54.6675C32.7949 54.8692 32.9583 55.0326 33.16 55.0326C33.3617 55.0326 33.525 54.8692 33.525 54.6675Z" fill="#191A1C"/>
<path d="M36.6871 56.4929C36.6871 56.2911 36.5238 56.1278 36.3221 56.1278C36.1204 56.1278 35.957 56.2911 35.957 56.4929C35.957 56.6946 36.1204 56.8579 36.3221 56.8579C36.5238 56.8579 36.6871 56.6946 36.6871 56.4929Z" fill="#191A1C"/>
<path d="M46.1715 54.6675C46.1715 54.4658 46.0082 54.3025 45.8065 54.3025C45.6047 54.3025 45.4414 54.4658 45.4414 54.6675C45.4414 54.8692 45.6047 55.0326 45.8065 55.0326C46.0082 55.0326 46.1715 54.8692 46.1715 54.6675Z" fill="#191A1C"/>
<path d="M43.0104 56.4929C43.0104 56.2911 42.847 56.1278 42.6453 56.1278C42.4436 56.1278 42.2803 56.2911 42.2803 56.4929C42.2803 56.6946 42.4436 56.8579 42.6453 56.8579C42.847 56.8579 43.0104 56.6946 43.0104 56.4929Z" fill="#191A1C"/>
<path d="M36.6871 38.2398C36.6871 38.0381 36.5238 37.8748 36.3221 37.8748C36.1204 37.8748 35.957 38.0381 35.957 38.2398C35.957 38.4415 36.1204 38.6049 36.3221 38.6049C36.5238 38.6049 36.6871 38.4415 36.6871 38.2398Z" fill="#191A1C"/>
<path d="M33.525 40.0643C33.525 39.8626 33.3617 39.6992 33.16 39.6992C32.9583 39.6992 32.7949 39.8626 32.7949 40.0643C32.7949 40.266 32.9583 40.4293 33.16 40.4293C33.3617 40.4293 33.525 40.266 33.525 40.0643Z" fill="#191A1C"/>
<path d="M46.1715 40.0643C46.1715 39.8626 46.0082 39.6992 45.8065 39.6992C45.6047 39.6992 45.4414 39.8626 45.4414 40.0643C45.4414 40.266 45.6047 40.4293 45.8065 40.4293C46.0082 40.4293 46.1715 40.266 46.1715 40.0643Z" fill="#191A1C"/>
<path d="M43.0104 38.2398C43.0104 38.0381 42.847 37.8748 42.6453 37.8748C42.4436 37.8748 42.2803 38.0381 42.2803 38.2398C42.2803 38.4415 42.4436 38.6049 42.6453 38.6049C42.847 38.6049 43.0104 38.4415 43.0104 38.2398Z" fill="#191A1C"/>
<path d="M49.3336 49.1916C49.3336 48.9899 49.1703 48.8265 48.9686 48.8265C48.7669 48.8265 48.6035 48.9899 48.6035 49.1916C48.6035 49.3933 48.7669 49.5566 48.9686 49.5566C49.1703 49.5566 49.3336 49.3933 49.3336 49.1916Z" fill="#191A1C"/>
<path d="M49.3336 45.5409C49.3336 45.3392 49.1703 45.1759 48.9686 45.1759C48.7669 45.1759 48.6035 45.3392 48.6035 45.5409C48.6035 45.7427 48.7669 45.906 48.9686 45.906C49.1703 45.906 49.3336 45.7427 49.3336 45.5409Z" fill="#191A1C"/>
<path d="M24.4055 30.9377C24.4055 30.5346 24.0785 30.2076 23.6754 30.2076C23.2723 30.2076 22.9453 30.5346 22.9453 30.9377C22.9453 31.3409 23.2723 31.6678 23.6754 31.6678C24.0785 31.6678 24.4055 31.3409 24.4055 30.9377Z" fill="#191A1C"/>
<path d="M27.5676 25.4618C27.5676 25.0587 27.2406 24.7317 26.8375 24.7317C26.4344 24.7317 26.1074 25.0587 26.1074 25.4618C26.1074 25.8649 26.4344 26.1919 26.8375 26.1919C27.2406 26.1919 27.5676 25.8649 27.5676 25.4618Z" fill="#191A1C"/>
<path d="M33.8899 25.4618C33.8899 25.0587 33.5629 24.7317 33.1598 24.7317C32.7567 24.7317 32.4297 25.0587 32.4297 25.4618C32.4297 25.8649 32.7567 26.1919 33.1598 26.1919C33.5629 26.1919 33.8899 25.8649 33.8899 25.4618Z" fill="#191A1C"/>
<path d="M37.052 30.9377C37.052 30.5346 36.725 30.2076 36.3219 30.2076C35.9188 30.2076 35.5918 30.5346 35.5918 30.9377C35.5918 31.3409 35.9188 31.6678 36.3219 31.6678C36.725 31.6678 37.052 31.3409 37.052 30.9377Z" fill="#191A1C"/>
<path d="M33.8899 36.4137C33.8899 36.0106 33.5629 35.6836 33.1598 35.6836C32.7567 35.6836 32.4297 36.0106 32.4297 36.4137C32.4297 36.8168 32.7567 37.1438 33.1598 37.1438C33.5629 37.1438 33.8899 36.8168 33.8899 36.4137Z" fill="#191A1C"/>
<path d="M27.5676 36.4137C27.5676 36.0106 27.2406 35.6836 26.8375 35.6836C26.4344 35.6836 26.1074 36.0106 26.1074 36.4137C26.1074 36.8168 26.4344 37.1438 26.8375 37.1438C27.2406 37.1438 27.5676 36.8168 27.5676 36.4137Z" fill="#191A1C"/>
<path d="M31.0935 30.9378C31.0935 30.3329 30.6032 29.8427 29.9984 29.8427C29.3936 29.8427 28.9033 30.333 28.9033 30.9378C28.9033 31.5426 29.3936 32.0329 29.9984 32.0329C30.6032 32.0329 31.0935 31.5425 31.0935 30.9378Z" fill="#191A1C"/>
<path d="M34.0734 29.1124C34.0734 28.6082 33.6649 28.1997 33.1607 28.1997C32.6566 28.1997 32.248 28.6082 32.248 29.1124C32.248 29.6165 32.6566 30.025 33.1607 30.025C33.6648 30.025 34.0734 29.6165 34.0734 29.1124Z" fill="#191A1C"/>
<path d="M30.9113 27.2872C30.9113 26.7831 30.5027 26.3745 29.9986 26.3745C29.4944 26.3745 29.0859 26.783 29.0859 27.2872C29.0859 27.7913 29.4944 28.1998 29.9986 28.1998C30.5027 28.1998 30.9113 27.7913 30.9113 27.2872Z" fill="#191A1C"/>
<path d="M27.7501 29.1124C27.7501 28.6082 27.3416 28.1997 26.8375 28.1997C26.3333 28.1997 25.9248 28.6082 25.9248 29.1124C25.9248 29.6165 26.3333 30.025 26.8375 30.025C27.3416 30.025 27.7501 29.6165 27.7501 29.1124Z" fill="#191A1C"/>
<path d="M34.0734 32.763C34.0734 32.2589 33.6649 31.8503 33.1607 31.8503C32.6566 31.8503 32.248 32.2588 32.248 32.763C32.248 33.2671 32.6566 33.6757 33.1607 33.6757C33.6648 33.6757 34.0734 33.2671 34.0734 32.763Z" fill="#191A1C"/>
<path d="M30.9113 34.5883C30.9113 34.0842 30.5027 33.6757 29.9986 33.6757C29.4944 33.6757 29.0859 34.0842 29.0859 34.5883C29.0859 35.0924 29.4944 35.501 29.9986 35.501C30.5027 35.501 30.9113 35.0925 30.9113 34.5883Z" fill="#191A1C"/>
<path d="M27.7501 32.763C27.7501 32.2589 27.3416 31.8503 26.8375 31.8503C26.3333 31.8503 25.9248 32.2588 25.9248 32.763C25.9248 33.2671 26.3333 33.6757 26.8375 33.6757C27.3416 33.6757 27.7501 33.2671 27.7501 32.763Z" fill="#191A1C"/>
<path d="M24.2231 34.5883C24.2231 34.2859 23.9779 34.0408 23.6755 34.0408C23.3731 34.0408 23.1279 34.2859 23.1279 34.5883C23.1279 34.8908 23.3731 35.1359 23.6755 35.1359C23.9779 35.1359 24.2231 34.8908 24.2231 34.5883Z" fill="#191A1C"/>
<path d="M30.5463 38.2397C30.5463 37.9373 30.3011 37.6921 29.9987 37.6921C29.6963 37.6921 29.4512 37.9373 29.4512 38.2397C29.4512 38.5421 29.6963 38.7873 29.9987 38.7873C30.3011 38.7873 30.5463 38.5421 30.5463 38.2397Z" fill="#191A1C"/>
<path d="M24.2231 27.2871C24.2231 26.9847 23.9779 26.7395 23.6755 26.7395C23.3731 26.7395 23.1279 26.9847 23.1279 27.2871C23.1279 27.5895 23.3731 27.8346 23.6755 27.8346C23.9779 27.8346 24.2231 27.5895 24.2231 27.2871Z" fill="#191A1C"/>
<path d="M30.5463 23.6362C30.5463 23.3338 30.3011 23.0886 29.9987 23.0886C29.6963 23.0886 29.4512 23.3338 29.4512 23.6362C29.4512 23.9386 29.6963 24.1838 29.9987 24.1838C30.3011 24.1838 30.5463 23.9386 30.5463 23.6362Z" fill="#191A1C"/>
<path d="M36.8696 27.2871C36.8696 26.9847 36.6244 26.7395 36.322 26.7395C36.0196 26.7395 35.7744 26.9847 35.7744 27.2871C35.7744 27.5895 36.0196 27.8346 36.322 27.8346C36.6244 27.8346 36.8696 27.5895 36.8696 27.2871Z" fill="#191A1C"/>
<path d="M36.8696 34.5883C36.8696 34.2859 36.6244 34.0408 36.322 34.0408C36.0196 34.0408 35.7744 34.2859 35.7744 34.5883C35.7744 34.8908 36.0196 35.1359 36.322 35.1359C36.6244 35.1359 36.8696 34.8908 36.8696 34.5883Z" fill="#191A1C"/>
<path d="M20.8785 29.1124C20.8785 28.9107 20.7152 28.7473 20.5135 28.7473C20.3118 28.7473 20.1484 28.9107 20.1484 29.1124C20.1484 29.3141 20.3118 29.4774 20.5135 29.4774C20.7152 29.4774 20.8785 29.3141 20.8785 29.1124Z" fill="#191A1C"/>
<path d="M20.8785 32.763C20.8785 32.5613 20.7152 32.3979 20.5135 32.3979C20.3118 32.3979 20.1484 32.5613 20.1484 32.763C20.1484 32.9647 20.3118 33.128 20.5135 33.128C20.7152 33.128 20.8785 32.9647 20.8785 32.763Z" fill="#191A1C"/>
<path d="M27.2018 21.8107C27.2018 21.609 27.0384 21.4457 26.8367 21.4457C26.635 21.4457 26.4717 21.609 26.4717 21.8107C26.4717 22.0124 26.635 22.1758 26.8367 22.1758C27.0384 22.1758 27.2018 22.0124 27.2018 21.8107V21.8107Z" fill="#191A1C"/>
<path d="M24.0406 23.6363C24.0406 23.4346 23.8773 23.2712 23.6756 23.2712C23.4739 23.2712 23.3105 23.4346 23.3105 23.6363C23.3105 23.838 23.4739 24.0013 23.6756 24.0013C23.8773 24.0013 24.0406 23.838 24.0406 23.6363Z" fill="#191A1C"/>
<path d="M36.6871 23.6363C36.6871 23.4346 36.5238 23.2712 36.3221 23.2712C36.1204 23.2712 35.957 23.4346 35.957 23.6363C35.957 23.838 36.1204 24.0013 36.3221 24.0013C36.5238 24.0013 36.6871 23.838 36.6871 23.6363Z" fill="#191A1C"/>
<path d="M33.525 21.8107C33.525 21.609 33.3617 21.4457 33.16 21.4457C32.9583 21.4457 32.7949 21.609 32.7949 21.8107C32.7949 22.0124 32.9583 22.1758 33.16 22.1758C33.3617 22.1758 33.525 22.0124 33.525 21.8107V21.8107Z" fill="#191A1C"/>
<path d="M39.8492 32.763C39.8492 32.5613 39.6859 32.3979 39.4842 32.3979C39.2825 32.3979 39.1191 32.5613 39.1191 32.763C39.1191 32.9647 39.2825 33.128 39.4842 33.128C39.6859 33.128 39.8492 32.9647 39.8492 32.763Z" fill="#191A1C"/>
<path d="M39.8492 29.1124C39.8492 28.9107 39.6859 28.7473 39.4842 28.7473C39.2825 28.7473 39.1191 28.9107 39.1191 29.1124C39.1191 29.3141 39.2825 29.4774 39.4842 29.4774C39.6859 29.4774 39.8492 29.3141 39.8492 29.1124Z" fill="#191A1C"/>
<rect x="4" y="2.5" width="17.5" height="17.5" rx="3.2" fill="#191A1C"/>
<path fill-rule="evenodd" clip-rule="evenodd" d="M18.102 7.85533L11.4327 14.4552L8.31348 11.3359L9.02059 10.6288L11.4364 13.0447L17.3986 7.14453L18.102 7.85533Z" fill="white"/>
</svg>
