<svg width="69" height="69" viewBox="0 0 69 69" fill="none" xmlns="http://www.w3.org/2000/svg">
<circle cx="34.5001" cy="32.9666" r="24.5333" fill="#FFED49"/>
<path d="M34.2858 65.1004H34.2821C33.3618 65.0932 31.0208 63.3593 28.7149 60.9764C25.5096 57.6636 18.0883 48.6024 18.4103 36.0404C18.4156 35.8356 18.5575 35.6591 18.757 35.6114L19.349 35.4668C24.5475 34.1939 29.2895 31.3322 33.0599 27.1907L33.9499 26.2148C34.0359 26.1206 34.1574 26.0667 34.2851 26.0667H34.2887C34.4171 26.0676 34.5396 26.1233 34.6256 26.2201L35.2061 26.877C39.1766 31.3636 44.2244 34.3829 49.8037 35.6087C50.0068 35.6532 50.1537 35.8303 50.1599 36.0388C50.5146 48.374 43.1266 57.5263 39.9337 60.8887C37.6005 63.346 35.2825 65.0773 34.2957 65.1004H34.2851L34.2858 65.1004ZM19.3114 36.4101C19.1882 45.1545 22.9142 52.1195 26.084 56.4437C29.7708 61.4718 33.6067 64.1606 34.284 64.1922C34.7512 64.1682 36.6748 63.0026 39.2757 60.2635C42.3606 57.0153 49.4581 48.2343 49.2608 36.4166C43.6307 35.1018 38.5423 32.017 34.5267 27.4783L34.2804 27.2007L33.7315 27.8026C29.8389 32.0771 24.9399 35.0326 19.5646 36.3481L19.3114 36.4101Z" fill="#191A1C" stroke="#191A1C" stroke-width="0.48"/>
<path d="M34.9672 55.1153C34.8927 55.1153 34.819 55.0975 34.7518 55.0603C34.6046 54.9813 34.5134 54.8279 34.5134 54.6612V36.5065C34.5134 36.3524 34.5915 36.2085 34.7209 36.1253C34.8503 36.0419 35.0133 36.0288 35.1535 36.0923L44.2309 40.1772C44.41 40.2578 44.5163 40.4439 44.4959 40.6391C44.4577 41.0036 43.4614 49.6373 35.2163 55.0412C35.1409 55.0909 35.0539 55.1159 34.967 55.1159L34.9672 55.1153ZM35.4212 37.2084V53.7995C41.826 49.2023 43.2897 42.4117 43.5467 40.8641L35.4212 37.2084Z" fill="#191A1C" stroke="#191A1C" stroke-width="0.48"/>
<rect x="4.59985" y="2.875" width="20.125" height="20.125" rx="3.2" fill="#191A1C"/>
<path fill-rule="evenodd" clip-rule="evenodd" d="M20.8169 9.03373L13.1471 16.6236L9.56006 13.0364L10.3732 12.2233L13.1514 15.0015L20.008 8.21631L20.8169 9.03373Z" fill="white"/>
</svg>
