<svg width="69" height="69" viewBox="0 0 69 69" fill="none" xmlns="http://www.w3.org/2000/svg">
<circle cx="34.5001" cy="32.9666" r="24.5333" fill="#FFED49"/>
<path d="M27.157 46.2054H41.1625V47.0807H27.157V46.2054Z" fill="#191A1C" stroke="#191A1C" stroke-width="0.4"/>
<path d="M27.157 49.7068H41.1625V50.5821H27.157V49.7068Z" fill="#191A1C" stroke="#191A1C" stroke-width="0.4"/>
<path d="M27.157 42.7042H32.8468V43.5795H27.157V42.7042Z" fill="#191A1C" stroke="#191A1C" stroke-width="0.4"/>
<path d="M27.157 53.208H41.1625V54.0833H27.157V53.208Z" fill="#191A1C" stroke="#191A1C" stroke-width="0.4"/>
<path d="M38.536 29.8999H21.4668V64.9136H47.727V29.8999H38.536ZM38.536 30.9566L46.6704 39.091H38.536V30.9566ZM46.8517 64.0382H22.3421V30.7752H37.6606V39.9663H46.8517V64.0382ZM46.8517 38.2156L39.4114 30.7753H46.8517V38.2156Z" fill="#191A1C" stroke="#191A1C" stroke-width="0.4"/>
<rect x="4.59985" y="2.875" width="20.125" height="20.125" rx="3.2" fill="#191A1C"/>
<path fill-rule="evenodd" clip-rule="evenodd" d="M20.8169 9.03373L13.1471 16.6236L9.56006 13.0364L10.3732 12.2233L13.1514 15.0015L20.008 8.21631L20.8169 9.03373Z" fill="white"/>
</svg>
