<svg width="69" height="69" viewBox="0 0 69 69" fill="none" xmlns="http://www.w3.org/2000/svg">
<circle cx="34.5001" cy="32.9667" r="24.5333" fill="#FFED49"/>
<path d="M17.1585 54.4712C17.1585 54.0076 16.7824 53.6316 16.3189 53.6316C15.8553 53.6316 15.4792 54.0076 15.4792 54.4712C15.4792 54.9348 15.8553 55.3108 16.3189 55.3108C16.7824 55.3108 17.1585 54.9348 17.1585 54.4712Z" fill="#191A1C"/>
<path d="M20.7945 48.173C20.7945 47.7094 20.4184 47.3334 19.9548 47.3334C19.4913 47.3334 19.1152 47.7094 19.1152 48.173C19.1152 48.6366 19.4913 49.0126 19.9548 49.0126C20.4184 49.0126 20.7945 48.6366 20.7945 48.173Z" fill="#191A1C"/>
<path d="M28.0659 48.173C28.0659 47.7094 27.6899 47.3334 27.2263 47.3334C26.7628 47.3334 26.3867 47.7094 26.3867 48.173C26.3867 48.6366 26.7628 49.0126 27.2263 49.0126C27.6899 49.0126 28.0659 48.6366 28.0659 48.173Z" fill="#191A1C"/>
<path d="M31.7024 54.4712C31.7024 54.0076 31.3264 53.6316 30.8628 53.6316C30.3992 53.6316 30.0232 54.0076 30.0232 54.4712C30.0232 54.9348 30.3992 55.3108 30.8628 55.3108C31.3264 55.3108 31.7024 54.9348 31.7024 54.4712Z" fill="#191A1C"/>
<path d="M28.0659 60.7686C28.0659 60.305 27.6899 59.929 27.2263 59.929C26.7628 59.929 26.3867 60.305 26.3867 60.7686C26.3867 61.2321 26.7628 61.6082 27.2263 61.6082C27.6899 61.6082 28.0659 61.2321 28.0659 60.7686Z" fill="#191A1C"/>
<path d="M20.7945 60.7686C20.7945 60.305 20.4184 59.929 19.9548 59.929C19.4913 59.929 19.1152 60.305 19.1152 60.7686C19.1152 61.2321 19.4913 61.6082 19.9548 61.6082C20.4184 61.6082 20.7945 61.2321 20.7945 60.7686Z" fill="#191A1C"/>
<path d="M24.8498 54.4713C24.8498 53.7758 24.2859 53.2119 23.5904 53.2119C22.8949 53.2119 22.3311 53.7758 22.3311 54.4713C22.3311 55.1668 22.8949 55.7307 23.5904 55.7307C24.286 55.7307 24.8498 55.1668 24.8498 54.4713Z" fill="#191A1C"/>
<path d="M28.2761 52.3721C28.2761 51.7923 27.8063 51.3225 27.2266 51.3225C26.6468 51.3225 26.177 51.7923 26.177 52.3721C26.177 52.9518 26.6468 53.4216 27.2266 53.4216C27.8063 53.4216 28.2761 52.9518 28.2761 52.3721Z" fill="#191A1C"/>
<path d="M24.6399 50.2729C24.6399 49.6932 24.1701 49.2234 23.5903 49.2234C23.0106 49.2234 22.5408 49.6932 22.5408 50.2729C22.5408 50.8527 23.0106 51.3225 23.5903 51.3225C24.1701 51.3225 24.6399 50.8527 24.6399 50.2729Z" fill="#191A1C"/>
<path d="M21.0046 52.3721C21.0046 51.7923 20.5348 51.3225 19.9551 51.3225C19.3753 51.3225 18.9055 51.7923 18.9055 52.3721C18.9055 52.9518 19.3753 53.4216 19.9551 53.4216C20.5348 53.4216 21.0046 52.9518 21.0046 52.3721Z" fill="#191A1C"/>
<path d="M28.2761 56.5703C28.2761 55.9906 27.8063 55.5208 27.2266 55.5208C26.6468 55.5208 26.177 55.9905 26.177 56.5703C26.177 57.15 26.6468 57.6199 27.2266 57.6199C27.8063 57.6199 28.2761 57.1501 28.2761 56.5703Z" fill="#191A1C"/>
<path d="M24.6399 58.6694C24.6399 58.0897 24.1701 57.6199 23.5903 57.6199C23.0106 57.6199 22.5408 58.0897 22.5408 58.6694C22.5408 59.2492 23.0106 59.719 23.5903 59.719C24.1701 59.719 24.6399 59.2492 24.6399 58.6694Z" fill="#191A1C"/>
<path d="M21.0046 56.5703C21.0046 55.9906 20.5348 55.5208 19.9551 55.5208C19.3753 55.5208 18.9055 55.9905 18.9055 56.5703C18.9055 57.15 19.3753 57.6199 19.9551 57.6199C20.5348 57.6199 21.0046 57.1501 21.0046 56.5703Z" fill="#191A1C"/>
<path d="M16.9484 58.6695C16.9484 58.3217 16.6664 58.0398 16.3187 58.0398C15.9709 58.0398 15.689 58.3217 15.689 58.6695C15.689 59.0173 15.9709 59.2992 16.3187 59.2992C16.6664 59.2992 16.9484 59.0173 16.9484 58.6695Z" fill="#191A1C"/>
<path d="M24.2208 62.8677C24.2208 62.52 23.9389 62.238 23.5911 62.238C23.2434 62.238 22.9614 62.52 22.9614 62.8677C22.9614 63.2155 23.2434 63.4974 23.5911 63.4974C23.9389 63.4974 24.2208 63.2155 24.2208 62.8677Z" fill="#191A1C"/>
<path d="M16.9484 50.273C16.9484 49.9252 16.6664 49.6433 16.3187 49.6433C15.9709 49.6433 15.689 49.9252 15.689 50.273C15.689 50.6208 15.9709 50.9027 16.3187 50.9027C16.6664 50.9027 16.9484 50.6208 16.9484 50.273Z" fill="#191A1C"/>
<path d="M24.2208 46.0739C24.2208 45.7262 23.9389 45.4442 23.5911 45.4442C23.2434 45.4442 22.9614 45.7262 22.9614 46.0739C22.9614 46.4217 23.2434 46.7036 23.5911 46.7036C23.9389 46.7036 24.2208 46.4217 24.2208 46.0739Z" fill="#191A1C"/>
<path d="M31.4921 50.273C31.4921 49.9252 31.2101 49.6433 30.8624 49.6433C30.5146 49.6433 30.2327 49.9252 30.2327 50.273C30.2327 50.6208 30.5146 50.9027 30.8624 50.9027C31.2101 50.9027 31.4921 50.6208 31.4921 50.273Z" fill="#191A1C"/>
<path d="M31.4921 58.6695C31.4921 58.3217 31.2101 58.0398 30.8624 58.0398C30.5146 58.0398 30.2327 58.3217 30.2327 58.6695C30.2327 59.0173 30.5146 59.2992 30.8624 59.2992C31.2101 59.2992 31.4921 59.0173 31.4921 58.6695Z" fill="#191A1C"/>
<path d="M16.7385 62.8677C16.7385 62.6357 16.5507 62.4479 16.3187 62.4479C16.0868 62.4479 15.8989 62.6357 15.8989 62.8677C15.8989 63.0996 16.0868 63.2875 16.3187 63.2875C16.5507 63.2875 16.7385 63.0996 16.7385 62.8677Z" fill="#191A1C"/>
<path d="M20.3745 64.9668C20.3745 64.7348 20.1867 64.547 19.9547 64.547C19.7228 64.547 19.5349 64.7348 19.5349 64.9668C19.5349 65.1988 19.7228 65.3866 19.9547 65.3866C20.1867 65.3866 20.3745 65.1988 20.3745 64.9668Z" fill="#191A1C"/>
<path d="M13.103 52.3722C13.103 52.1402 12.9152 51.9524 12.6832 51.9524C12.4513 51.9524 12.2634 52.1406 12.2634 52.3722C12.2634 52.6042 12.4513 52.792 12.6832 52.792C12.9152 52.792 13.103 52.6042 13.103 52.3722Z" fill="#191A1C"/>
<path d="M13.103 56.5704C13.103 56.3385 12.9152 56.1506 12.6832 56.1506C12.4513 56.1506 12.2634 56.3388 12.2634 56.5704C12.2634 56.8024 12.4513 56.9902 12.6832 56.9902C12.9152 56.9902 13.103 56.8024 13.103 56.5704Z" fill="#191A1C"/>
<path d="M31.2822 62.8677C31.2822 62.6357 31.0944 62.4479 30.8624 62.4479C30.6305 62.4479 30.4426 62.6357 30.4426 62.8677C30.4426 63.0996 30.6305 63.2875 30.8624 63.2875C31.0944 63.2875 31.2822 63.0996 31.2822 62.8677Z" fill="#191A1C"/>
<path d="M27.646 64.9668C27.646 64.7348 27.4582 64.547 27.2262 64.547C26.9942 64.547 26.8064 64.7348 26.8064 64.9668C26.8064 65.1988 26.9942 65.3866 27.2262 65.3866C27.4582 65.3866 27.646 65.1988 27.646 64.9668Z" fill="#191A1C"/>
<path d="M20.3745 43.9757C20.3745 43.7438 20.1867 43.5559 19.9547 43.5559C19.7228 43.5559 19.5349 43.7438 19.5349 43.9757C19.5349 44.2077 19.7228 44.3955 19.9547 44.3955C20.1867 44.3955 20.3745 44.2077 20.3745 43.9757Z" fill="#191A1C"/>
<path d="M16.7385 46.0739C16.7385 45.8419 16.5507 45.6541 16.3187 45.6541C16.0868 45.6541 15.8989 45.8419 15.8989 46.0739C15.8989 46.3058 16.0868 46.4937 16.3187 46.4937C16.5507 46.4937 16.7385 46.3058 16.7385 46.0739Z" fill="#191A1C"/>
<path d="M31.2822 46.0739C31.2822 45.8419 31.0944 45.6541 30.8624 45.6541C30.6305 45.6541 30.4426 45.8419 30.4426 46.0739C30.4426 46.3058 30.6305 46.4937 30.8624 46.4937C31.0944 46.4937 31.2822 46.3058 31.2822 46.0739Z" fill="#191A1C"/>
<path d="M27.646 43.9757C27.646 43.7438 27.4582 43.5559 27.2262 43.5559C26.9942 43.5559 26.8064 43.7438 26.8064 43.9757C26.8064 44.2077 26.9942 44.3955 27.2262 44.3955C27.4582 44.3955 27.646 44.2077 27.646 43.9757Z" fill="#191A1C"/>
<path d="M34.9185 56.5704C34.9185 56.3385 34.7306 56.1506 34.4987 56.1506C34.2667 56.1506 34.0789 56.3385 34.0789 56.5704C34.0789 56.8024 34.2667 56.9902 34.4987 56.9902C34.7306 56.9902 34.9185 56.8024 34.9185 56.5704Z" fill="#191A1C"/>
<path d="M34.9185 52.3722C34.9185 52.1402 34.7306 51.9524 34.4987 51.9524C34.2667 51.9524 34.0789 52.1402 34.0789 52.3722C34.0789 52.6042 34.2667 52.792 34.4987 52.792C34.7306 52.792 34.9185 52.6042 34.9185 52.3722Z" fill="#191A1C"/>
<path d="M38.9736 54.4712C38.9736 54.0076 38.5976 53.6316 38.134 53.6316C37.6705 53.6316 37.2944 54.0076 37.2944 54.4712C37.2944 54.9348 37.6705 55.3108 38.134 55.3108C38.5976 55.3108 38.9736 54.9348 38.9736 54.4712Z" fill="#191A1C"/>
<path d="M42.6096 48.173C42.6096 47.7094 42.2336 47.3334 41.77 47.3334C41.3064 47.3334 40.9304 47.7094 40.9304 48.173C40.9304 48.6366 41.3064 49.0126 41.77 49.0126C42.2336 49.0126 42.6096 48.6366 42.6096 48.173Z" fill="#191A1C"/>
<path d="M49.8811 48.173C49.8811 47.7094 49.5051 47.3334 49.0415 47.3334C48.5779 47.3334 48.2019 47.7094 48.2019 48.173C48.2019 48.6366 48.5779 49.0126 49.0415 49.0126C49.5051 49.0126 49.8811 48.6366 49.8811 48.173Z" fill="#191A1C"/>
<path d="M53.5176 54.4712C53.5176 54.0076 53.1416 53.6316 52.678 53.6316C52.2144 53.6316 51.8384 54.0076 51.8384 54.4712C51.8384 54.9348 52.2144 55.3108 52.678 55.3108C53.1416 55.3108 53.5176 54.9348 53.5176 54.4712Z" fill="#191A1C"/>
<path d="M49.8811 60.7686C49.8811 60.305 49.5051 59.929 49.0415 59.929C48.5779 59.929 48.2019 60.305 48.2019 60.7686C48.2019 61.2321 48.5779 61.6082 49.0415 61.6082C49.5051 61.6082 49.8811 61.2321 49.8811 60.7686Z" fill="#191A1C"/>
<path d="M42.6096 60.7686C42.6096 60.305 42.2336 59.929 41.77 59.929C41.3064 59.929 40.9304 60.305 40.9304 60.7686C40.9304 61.2321 41.3064 61.6082 41.77 61.6082C42.2336 61.6082 42.6096 61.2321 42.6096 60.7686Z" fill="#191A1C"/>
<path d="M46.665 54.4713C46.665 53.7758 46.1011 53.2119 45.4056 53.2119C44.7101 53.2119 44.1462 53.7758 44.1462 54.4713C44.1462 55.1668 44.7101 55.7307 45.4056 55.7307C46.1012 55.7307 46.665 55.1668 46.665 54.4713Z" fill="#191A1C"/>
<path d="M50.0911 52.3721C50.0911 51.7923 49.6213 51.3225 49.0415 51.3225C48.4617 51.3225 47.9919 51.7923 47.9919 52.3721C47.9919 52.9518 48.4617 53.4216 49.0415 53.4216C49.6213 53.4216 50.0911 52.9518 50.0911 52.3721Z" fill="#191A1C"/>
<path d="M46.456 50.2729C46.456 49.6932 45.9863 49.2234 45.4065 49.2234C44.8268 49.2234 44.3569 49.6932 44.3569 50.2729C44.3569 50.8527 44.8267 51.3225 45.4065 51.3225C45.9862 51.3225 46.456 50.8527 46.456 50.2729Z" fill="#191A1C"/>
<path d="M42.8198 52.3721C42.8198 51.7923 42.35 51.3225 41.7703 51.3225C41.1905 51.3225 40.7207 51.7923 40.7207 52.3721C40.7207 52.9518 41.1905 53.4216 41.7703 53.4216C42.35 53.4216 42.8198 52.9518 42.8198 52.3721Z" fill="#191A1C"/>
<path d="M50.0911 56.5703C50.0911 55.9906 49.6213 55.5208 49.0415 55.5208C48.4617 55.5208 47.9919 55.9905 47.9919 56.5703C47.9919 57.15 48.4617 57.6199 49.0415 57.6199C49.6213 57.6199 50.0911 57.1501 50.0911 56.5703Z" fill="#191A1C"/>
<path d="M46.456 58.6694C46.456 58.0897 45.9863 57.6199 45.4065 57.6199C44.8268 57.6199 44.3569 58.0897 44.3569 58.6694C44.3569 59.2492 44.8267 59.719 45.4065 59.719C45.9862 59.719 46.456 59.2492 46.456 58.6694Z" fill="#191A1C"/>
<path d="M42.8198 56.5703C42.8198 55.9906 42.35 55.5208 41.7703 55.5208C41.1905 55.5208 40.7207 55.9905 40.7207 56.5703C40.7207 57.15 41.1905 57.6199 41.7703 57.6199C42.35 57.6199 42.8198 57.1501 42.8198 56.5703Z" fill="#191A1C"/>
<path d="M38.7638 58.6695C38.7638 58.3217 38.4819 58.0398 38.1341 58.0398C37.7863 58.0398 37.5044 58.3217 37.5044 58.6695C37.5044 59.0173 37.7863 59.2992 38.1341 59.2992C38.4819 59.2992 38.7638 59.0173 38.7638 58.6695Z" fill="#191A1C"/>
<path d="M46.036 62.8677C46.036 62.52 45.7541 62.238 45.4063 62.238C45.0585 62.238 44.7766 62.52 44.7766 62.8677C44.7766 63.2155 45.0585 63.4974 45.4063 63.4974C45.7541 63.4974 46.036 63.2155 46.036 62.8677Z" fill="#191A1C"/>
<path d="M38.7638 50.273C38.7638 49.9252 38.4819 49.6433 38.1341 49.6433C37.7863 49.6433 37.5044 49.9252 37.5044 50.273C37.5044 50.6208 37.7863 50.9027 38.1341 50.9027C38.4819 50.9027 38.7638 50.6208 38.7638 50.273Z" fill="#191A1C"/>
<path d="M46.036 46.0739C46.036 45.7262 45.7541 45.4442 45.4063 45.4442C45.0585 45.4442 44.7766 45.7262 44.7766 46.0739C44.7766 46.4217 45.0585 46.7036 45.4063 46.7036C45.7541 46.7036 46.036 46.4217 46.036 46.0739Z" fill="#191A1C"/>
<path d="M53.3073 50.273C53.3073 49.9252 53.0253 49.6433 52.6776 49.6433C52.3298 49.6433 52.0479 49.9252 52.0479 50.273C52.0479 50.6208 52.3298 50.9027 52.6776 50.9027C53.0253 50.9027 53.3073 50.6208 53.3073 50.273Z" fill="#191A1C"/>
<path d="M53.3073 58.6695C53.3073 58.3217 53.0253 58.0398 52.6776 58.0398C52.3298 58.0398 52.0479 58.3217 52.0479 58.6695C52.0479 59.0173 52.3298 59.2992 52.6776 59.2992C53.0253 59.2992 53.3073 59.0173 53.3073 58.6695Z" fill="#191A1C"/>
<path d="M38.5535 62.8677C38.5535 62.6357 38.3656 62.4479 38.1337 62.4479C37.9017 62.4479 37.7139 62.6357 37.7139 62.8677C37.7139 63.0996 37.9017 63.2875 38.1337 63.2875C38.3656 63.2875 38.5535 63.0996 38.5535 62.8677Z" fill="#191A1C"/>
<path d="M42.1897 64.9668C42.1897 64.7348 42.0019 64.547 41.7699 64.547C41.5379 64.547 41.3501 64.7348 41.3501 64.9668C41.3501 65.1988 41.5379 65.3866 41.7699 65.3866C42.0019 65.3866 42.1897 65.1988 42.1897 64.9668Z" fill="#191A1C"/>
<path d="M53.0974 62.8677C53.0974 62.6357 52.9096 62.4479 52.6776 62.4479C52.4457 62.4479 52.2578 62.6357 52.2578 62.8677C52.2578 63.0996 52.4457 63.2875 52.6776 63.2875C52.9096 63.2875 53.0974 63.0996 53.0974 62.8677Z" fill="#191A1C"/>
<path d="M49.4622 64.9668C49.4622 64.7348 49.2743 64.547 49.0424 64.547C48.8104 64.547 48.6226 64.7348 48.6226 64.9668C48.6226 65.1988 48.8104 65.3866 49.0424 65.3866C49.2743 65.3866 49.4622 65.1988 49.4622 64.9668Z" fill="#191A1C"/>
<path d="M42.1897 43.9757C42.1897 43.7438 42.0019 43.5559 41.7699 43.5559C41.5379 43.5559 41.3501 43.7438 41.3501 43.9757C41.3501 44.2077 41.5379 44.3955 41.7699 44.3955C42.0019 44.3955 42.1897 44.2077 42.1897 43.9757Z" fill="#191A1C"/>
<path d="M38.5535 46.0739C38.5535 45.8419 38.3656 45.6541 38.1337 45.6541C37.9017 45.6541 37.7139 45.8419 37.7139 46.0739C37.7139 46.3058 37.9017 46.4937 38.1337 46.4937C38.3656 46.4937 38.5535 46.3058 38.5535 46.0739Z" fill="#191A1C"/>
<path d="M53.0974 46.0739C53.0974 45.8419 52.9096 45.6541 52.6776 45.6541C52.4457 45.6541 52.2578 45.8419 52.2578 46.0739C52.2578 46.3058 52.4457 46.4937 52.6776 46.4937C52.9096 46.4937 53.0974 46.3058 53.0974 46.0739Z" fill="#191A1C"/>
<path d="M49.4622 43.9757C49.4622 43.7438 49.2743 43.5559 49.0424 43.5559C48.8104 43.5559 48.6226 43.7438 48.6226 43.9757C48.6226 44.2077 48.8104 44.3955 49.0424 44.3955C49.2743 44.3955 49.4622 44.2077 49.4622 43.9757Z" fill="#191A1C"/>
<path d="M56.7337 56.5704C56.7337 56.3385 56.5458 56.1506 56.3138 56.1506C56.0819 56.1506 55.894 56.3385 55.894 56.5704C55.894 56.8024 56.0819 56.9902 56.3138 56.9902C56.5458 56.9902 56.7337 56.8024 56.7337 56.5704Z" fill="#191A1C"/>
<path d="M56.7337 52.3722C56.7337 52.1402 56.5458 51.9524 56.3138 51.9524C56.0819 51.9524 55.894 52.1402 55.894 52.3722C55.894 52.6042 56.0819 52.792 56.3138 52.792C56.5458 52.792 56.7337 52.6042 56.7337 52.3722Z" fill="#191A1C"/>
<path d="M28.0659 35.5784C28.0659 35.1148 27.6899 34.7388 27.2263 34.7388C26.7628 34.7388 26.3867 35.1148 26.3867 35.5784C26.3867 36.042 26.7628 36.418 27.2263 36.418C27.6899 36.418 28.0659 36.042 28.0659 35.5784Z" fill="#191A1C"/>
<path d="M31.7024 29.281C31.7024 28.8174 31.3264 28.4414 30.8628 28.4414C30.3992 28.4414 30.0232 28.8174 30.0232 29.281C30.0232 29.7446 30.3992 30.1206 30.8628 30.1206C31.3264 30.1206 31.7024 29.7446 31.7024 29.281Z" fill="#191A1C"/>
<path d="M38.9736 29.281C38.9736 28.8174 38.5976 28.4414 38.134 28.4414C37.6705 28.4414 37.2944 28.8174 37.2944 29.281C37.2944 29.7446 37.6705 30.1206 38.134 30.1206C38.5976 30.1206 38.9736 29.7446 38.9736 29.281Z" fill="#191A1C"/>
<path d="M42.6096 35.5784C42.6096 35.1148 42.2336 34.7388 41.77 34.7388C41.3064 34.7388 40.9304 35.1148 40.9304 35.5784C40.9304 36.042 41.3064 36.418 41.77 36.418C42.2336 36.418 42.6096 36.042 42.6096 35.5784Z" fill="#191A1C"/>
<path d="M38.9736 41.8757C38.9736 41.4122 38.5976 41.0361 38.134 41.0361C37.6705 41.0361 37.2944 41.4122 37.2944 41.8757C37.2944 42.3393 37.6705 42.7153 38.134 42.7153C38.5976 42.7153 38.9736 42.3393 38.9736 41.8757Z" fill="#191A1C"/>
<path d="M31.7024 41.8757C31.7024 41.4122 31.3264 41.0361 30.8628 41.0361C30.3992 41.0361 30.0232 41.4122 30.0232 41.8757C30.0232 42.3393 30.3992 42.7153 30.8628 42.7153C31.3264 42.7153 31.7024 42.3393 31.7024 41.8757Z" fill="#191A1C"/>
<path d="M35.7575 35.5785C35.7575 34.8829 35.1937 34.3191 34.4981 34.3191C33.8026 34.3191 33.2388 34.883 33.2388 35.5785C33.2388 36.274 33.8026 36.8378 34.4981 36.8378C35.1937 36.8378 35.7575 36.274 35.7575 35.5785Z" fill="#191A1C"/>
<path d="M39.1836 33.4792C39.1836 32.8995 38.7138 32.4297 38.134 32.4297C37.5543 32.4297 37.0845 32.8995 37.0845 33.4792C37.0845 34.059 37.5543 34.5288 38.134 34.5288C38.7138 34.5288 39.1836 34.059 39.1836 33.4792Z" fill="#191A1C"/>
<path d="M35.5474 31.3802C35.5474 30.8005 35.0776 30.3307 34.4978 30.3307C33.918 30.3307 33.4482 30.8005 33.4482 31.3802C33.4482 31.96 33.918 32.4298 34.4978 32.4298C35.0776 32.4298 35.5474 31.96 35.5474 31.3802Z" fill="#191A1C"/>
<path d="M31.9123 33.4792C31.9123 32.8995 31.4426 32.4297 30.8628 32.4297C30.2831 32.4297 29.8132 32.8995 29.8132 33.4792C29.8132 34.059 30.283 34.5288 30.8628 34.5288C31.4425 34.5288 31.9123 34.059 31.9123 33.4792Z" fill="#191A1C"/>
<path d="M39.1836 37.6775C39.1836 37.0978 38.7138 36.6279 38.134 36.6279C37.5543 36.6279 37.0845 37.0977 37.0845 37.6775C37.0845 38.2572 37.5543 38.727 38.134 38.727C38.7138 38.727 39.1836 38.2573 39.1836 37.6775Z" fill="#191A1C"/>
<path d="M35.5474 39.7766C35.5474 39.1969 35.0776 38.7271 34.4978 38.7271C33.918 38.7271 33.4482 39.1968 33.4482 39.7766C33.4482 40.3563 33.918 40.8262 34.4978 40.8262C35.0776 40.8262 35.5474 40.3564 35.5474 39.7766Z" fill="#191A1C"/>
<path d="M31.9123 37.6775C31.9123 37.0978 31.4426 36.6279 30.8628 36.6279C30.2831 36.6279 29.8132 37.0977 29.8132 37.6775C29.8132 38.2572 30.283 38.727 30.8628 38.727C31.4425 38.727 31.9123 38.2573 31.9123 37.6775Z" fill="#191A1C"/>
<path d="M27.8559 39.7766C27.8559 39.4288 27.5739 39.1469 27.2261 39.1469C26.8784 39.1469 26.5964 39.4288 26.5964 39.7766C26.5964 40.1243 26.8784 40.4063 27.2261 40.4063C27.5739 40.4063 27.8559 40.1243 27.8559 39.7766Z" fill="#191A1C"/>
<path d="M35.1283 43.9757C35.1283 43.6279 34.8464 43.3459 34.4986 43.3459C34.1508 43.3459 33.8689 43.6279 33.8689 43.9757C33.8689 44.3234 34.1508 44.6054 34.4986 44.6054C34.8464 44.6054 35.1283 44.3234 35.1283 43.9757Z" fill="#191A1C"/>
<path d="M27.8559 31.3801C27.8559 31.0323 27.5739 30.7504 27.2261 30.7504C26.8784 30.7504 26.5964 31.0323 26.5964 31.3801C26.5964 31.7278 26.8784 32.0098 27.2261 32.0098C27.5739 32.0098 27.8559 31.7278 27.8559 31.3801Z" fill="#191A1C"/>
<path d="M35.1283 27.1817C35.1283 26.8339 34.8464 26.552 34.4986 26.552C34.1508 26.552 33.8689 26.8339 33.8689 27.1817C33.8689 27.5295 34.1508 27.8114 34.4986 27.8114C34.8464 27.8114 35.1283 27.5295 35.1283 27.1817Z" fill="#191A1C"/>
<path d="M42.3998 31.3801C42.3998 31.0323 42.1179 30.7504 41.7701 30.7504C41.4223 30.7504 41.1404 31.0323 41.1404 31.3801C41.1404 31.7278 41.4223 32.0098 41.7701 32.0098C42.1179 32.0098 42.3998 31.7278 42.3998 31.3801Z" fill="#191A1C"/>
<path d="M42.3998 39.7766C42.3998 39.4288 42.1179 39.1469 41.7701 39.1469C41.4223 39.1469 41.1404 39.4288 41.1404 39.7766C41.1404 40.1243 41.4223 40.4063 41.7701 40.4063C42.1179 40.4063 42.3998 40.1243 42.3998 39.7766Z" fill="#191A1C"/>
<path d="M24.0108 33.4793C24.0108 33.2473 23.8229 33.0594 23.5909 33.0594C23.359 33.0594 23.1711 33.2473 23.1711 33.4793C23.1711 33.7112 23.359 33.8991 23.5909 33.8991C23.8229 33.8991 24.0108 33.7112 24.0108 33.4793Z" fill="#191A1C"/>
<path d="M24.0108 37.6775C24.0108 37.4455 23.8229 37.2577 23.5909 37.2577C23.359 37.2577 23.1711 37.4455 23.1711 37.6775C23.1711 37.9095 23.359 38.0973 23.5909 38.0973C23.8229 38.0973 24.0108 37.9095 24.0108 37.6775Z" fill="#191A1C"/>
<path d="M31.2822 25.0823C31.2822 24.8503 31.0944 24.6625 30.8624 24.6625C30.6305 24.6625 30.4426 24.8503 30.4426 25.0823C30.4426 25.3142 30.6305 25.5021 30.8624 25.5021C31.0944 25.5021 31.2822 25.3142 31.2822 25.0823V25.0823Z" fill="#191A1C"/>
<path d="M27.646 27.1818C27.646 26.9498 27.4582 26.762 27.2262 26.762C26.9942 26.762 26.8064 26.9498 26.8064 27.1818C26.8064 27.4137 26.9942 27.6016 27.2262 27.6016C27.4582 27.6016 27.646 27.4137 27.646 27.1818Z" fill="#191A1C"/>
<path d="M42.1897 27.1818C42.1897 26.9498 42.0019 26.762 41.7699 26.762C41.5379 26.762 41.3501 26.9498 41.3501 27.1818C41.3501 27.4137 41.5379 27.6016 41.7699 27.6016C42.0019 27.6016 42.1897 27.4137 42.1897 27.1818Z" fill="#191A1C"/>
<path d="M38.5535 25.0823C38.5535 24.8503 38.3656 24.6625 38.1337 24.6625C37.9017 24.6625 37.7139 24.8503 37.7139 25.0823C37.7139 25.3142 37.9017 25.5021 38.1337 25.5021C38.3656 25.5021 38.5535 25.3142 38.5535 25.0823V25.0823Z" fill="#191A1C"/>
<path d="M45.8259 37.6775C45.8259 37.4455 45.6381 37.2577 45.4061 37.2577C45.1742 37.2577 44.9863 37.4455 44.9863 37.6775C44.9863 37.9095 45.1742 38.0973 45.4061 38.0973C45.6381 38.0973 45.8259 37.9095 45.8259 37.6775Z" fill="#191A1C"/>
<path d="M45.8259 33.4793C45.8259 33.2473 45.6381 33.0594 45.4061 33.0594C45.1742 33.0594 44.9863 33.2473 44.9863 33.4793C44.9863 33.7112 45.1742 33.8991 45.4061 33.8991C45.6381 33.8991 45.8259 33.7112 45.8259 33.4793Z" fill="#191A1C"/>
<rect x="4.59985" y="2.875" width="20.125" height="20.125" rx="3.2" fill="#191A1C"/>
<path fill-rule="evenodd" clip-rule="evenodd" d="M20.8169 9.03373L13.1471 16.6236L9.56006 13.0364L10.3732 12.2233L13.1514 15.0015L20.008 8.21631L20.8169 9.03373Z" fill="white"/>
</svg>
