<svg width="48" height="48" viewBox="0 0 48 48" fill="none" xmlns="http://www.w3.org/2000/svg">
<ellipse cx="24.0003" cy="22.9331" rx="17.0667" ry="17.0667" fill="#FFED49"/>
<path d="M17.4981 26.5401C18.6783 25.7654 19.8361 24.9516 20.5051 23.7084C21.2156 22.3882 22.1994 21 23.7834 21C25.2001 21 26.0799 22.1412 26.7391 23.3032C27.468 24.5879 28.7112 25.3782 29.9964 26.1061C32.4216 27.4796 34 30.2789 34 34.0007C34 40.155 30.7653 45.1441 24 45.1441C17.2347 45.1441 14 40.155 14 34.0007C14 30.5442 15.3614 27.9425 17.4981 26.5401Z" stroke="#191A1C" stroke-width="1.26126"/>
<path d="M30.4179 33.6679C30.4179 31.2793 29.4049 29.4828 27.8484 28.6013C27.0235 28.1341 26.2257 27.6269 25.7579 26.8024C25.3348 26.0566 24.7702 25.3242 23.8609 25.3242C22.8443 25.3242 22.2129 26.2151 21.757 27.0625C21.3276 27.8603 20.5845 28.3826 19.8271 28.8798C18.4557 29.7799 17.582 31.4496 17.582 33.6679" stroke="#191A1C" stroke-width="1.26126"/>
<path d="M24.0901 33.6125V40.6396" stroke="black" stroke-width="1.26126"/>
</svg>
