<svg width="48" height="48" viewBox="0 0 48 48" fill="none" xmlns="http://www.w3.org/2000/svg">
<ellipse cx="24" cy="22.9334" rx="17.0667" ry="17.0667" fill="#FFED49"/>
<path d="M34.854 27.3529C35.9671 27.0999 38.5286 26.5572 39.5 28.5C40.4714 30.4428 38.4104 32.2728 37.2973 32.7281" stroke="#191A1C"/>
<path d="M12.6519 27.3528C11.5388 27.0998 9.22524 26.8759 8.25385 28.8186C7.28246 30.7614 9.09546 32.2727 10.2085 32.728" stroke="#191A1C"/>
<path d="M34.2942 41.2233C35.8335 41.7276 38.8786 42.2823 39.7658 41.1201C41.6956 38.5919 38.2738 36.4806 37.2975 35.1713" stroke="#191A1C"/>
<path d="M13.706 41.2233C12.1668 41.7276 9.12165 42.2823 8.23449 41.1201C6.30469 38.5919 9.72647 36.4806 10.7027 35.1713" stroke="#191A1C"/>
<path d="M16.4222 24.6547C17.4891 24.0784 18.5006 23.3934 19.4654 22.6588C20.6109 21.7869 22.0947 21 23.6107 21C24.9356 21 26.2359 21.601 27.3073 22.3346C28.3581 23.0541 29.454 23.7214 30.6099 24.2561C34.6798 26.1388 37.4227 29.685 37.4227 33.7496C37.4227 39.785 31.3747 44.6777 23.9142 44.6777C16.4537 44.6777 10.4058 39.785 10.4058 33.7496C10.4058 29.9562 12.7949 26.6142 16.4222 24.6547Z" stroke="#191A1C"/>
<rect x="3.19995" y="2" width="14" height="14" rx="3.2" fill="#191A1C"/>
<path d="M13 6L7 12" stroke="white" stroke-width="0.75"/>
<path d="M13 12L7 6" stroke="white" stroke-width="0.75"/>
</svg>
